<svg width="36" height="36" viewBox="0 0 36 36" fill="none" xmlns="http://www.w3.org/2000/svg">
<path d="M15.8036 0.000159321V9.08647H17.2107V0H15.8037L15.8036 0.000159321ZM7.19209 0.0498001C5.95847 0.0498001 4.95715 1.05105 4.95715 2.28467C4.95715 3.51828 5.95847 4.51714 7.19209 4.51714C8.19883 4.51714 9.04885 3.85113 9.3276 2.93604H12.9024V9.08647H14.3096V1.529H9.29514C8.98584 0.666888 8.16056 0.0498001 7.19209 0.0498001ZM22.5656 0.0498001C21.332 0.0498001 20.3331 1.05105 20.3331 2.28467C20.3331 3.24916 20.9438 4.07062 21.8001 4.38294V9.08639H23.2046V4.42518C24.127 4.15057 24.8006 3.29609 24.8006 2.28474C24.8006 1.05105 23.7993 0.0498001 22.5657 0.0498001H22.5656ZM18.7694 4.79558V9.08647H20.174V4.79558H18.7695H18.7694ZM33.7675 5.11617C32.5339 5.11617 31.5326 6.11758 31.5326 7.3512C31.5326 8.39198 32.2444 9.26634 33.2082 9.51407V11.6992H25.8148V13.1039H34.6152V9.41725C35.4284 9.08377 35.9999 8.28498 35.9999 7.35128C35.9999 6.11766 35.001 5.11633 33.7674 5.11633L33.7675 5.11617ZM0 7.27419V8.68131H5.29525V13.1039H10.2922V11.6991H6.70237V7.27411H7.95087e-05L0 7.27419ZM11.6967 10.4937V23.1996H24.41V10.4935H11.6968L11.6967 10.4937ZM13.0937 11.7391H14.4983V17.9915L17.0764 20.5695H23.0651V21.9742H16.4922L16.2859 21.7678L15.4307 20.9127C15.3485 21.5001 14.8452 21.9518 14.235 21.9518C13.5674 21.9518 13.0266 21.4111 13.0266 20.7436C13.0266 20.1325 13.4798 19.6315 14.0684 19.5503L13.3003 18.782L13.0939 18.5757V11.7389L13.0937 11.7391ZM17.4643 11.7516H18.8713V16.1518H23.0501L23.0503 17.559H17.4644V11.7516L17.4643 11.7516ZM1.82469 14.7297V21.8869C0.910636 22.1663 0.246055 23.0164 0.246055 24.0224C0.246055 25.2559 1.245 26.2573 2.47861 26.2573C3.71223 26.2573 4.71348 25.256 4.71348 24.0225C4.71348 23.0524 4.09377 22.2275 3.22935 21.9193V16.1343H10.2922V14.7298H1.82469V14.7297ZM25.8148 14.7297V16.1343H30.108V14.7298H25.8146L25.8148 14.7297ZM33.7674 16.4774C32.9005 16.4774 32.1492 16.9715 31.7786 17.693H25.8146L25.8148 19.1001H31.5674C31.7524 20.1477 32.6672 20.9447 33.7675 20.9447C35.0011 20.9447 36 19.9433 36 18.7098C36 17.4761 35.0011 16.4774 33.7674 16.4774V16.4774ZM5.99873 17.693V19.1001H10.2922V17.693H5.99873ZM7.36353 20.5943V27.2939C6.44883 27.5734 5.78242 28.4236 5.78242 29.4295C5.78242 30.663 6.78375 31.6644 8.01737 31.6644C9.25091 31.6644 10.2496 30.663 10.2496 29.4295C10.2496 28.4594 9.63181 27.6344 8.76803 27.3263V22.0011H10.2919V20.5941H7.36361L7.36353 20.5943ZM25.8148 20.5943V22.0012H29.407V29.5812C28.5062 29.8695 27.8534 30.7157 27.8534 31.7117C27.8532 32.9452 28.8545 33.9441 30.0881 33.9441C31.3218 33.9441 32.3206 32.9452 32.3206 31.7117C32.3206 30.7316 31.6894 29.8997 30.8115 29.5986V20.5943H25.8145H25.8148ZM12.9024 24.6065V28.905H14.3096V24.6065H12.9024ZM15.8037 24.6065V31.4929C14.9276 31.7947 14.297 32.6252 14.297 33.6034C14.297 34.8369 15.2984 35.8384 16.532 35.8384C17.7656 35.8384 18.7645 34.8369 18.7645 33.6034C18.7645 32.6066 18.1119 31.7626 17.2107 31.4754V24.6065H15.8037ZM18.7694 24.6065V28.905H20.1766L20.174 24.6066H18.7695L18.7694 24.6065ZM21.7999 24.6065V35.7489H23.2044V24.6065H21.8H21.7999Z" fill="white"/>
</svg>
