<svg width="100" height="100" viewBox="0 0 100 100" fill="none" xmlns="http://www.w3.org/2000/svg">
<g clip-path="url(#clip0_225_229)">
<path d="M94.4443 41.6667C94.4443 36.1111 88.536 28.6056 83.3332 30.5556C61.111 38.8889 30.5555 25 30.5555 25C24.4193 25 11.5082 50.7139 16.6666 52.7778C17.436 53.0861 18.1693 53.4083 18.886 53.7306C12.911 55.7972 11.8971 60.5806 16.6666 61.1111C41.6666 63.8889 35.8221 100 38.8888 100C42.6221 100 46.3471 92.7389 48.3943 86.1111H75.6166C76.4166 92.65 78.0221 100 80.5555 100C82.961 100 87.8082 90.1611 91.0943 74.6056C93.1332 67.3111 94.4443 56.4611 94.4443 41.6667Z" fill="#CCD6DD"/>
<path d="M27.7778 61.1111C22.2222 61.1111 14.0389 61.3528 8.40831 61.3528C2.77776 61.3528 -1.71391 51.6917 1.9222 48.0694C5.55553 44.4444 16.6666 41.6667 13.8889 30.5556C12.3833 24.5306 25 22.2222 30.5555 25C43.9333 31.6889 44.4444 52.7778 25 52.7778C25 52.7778 33.3333 61.1111 27.7778 61.1111ZM83.3333 30.5556C76.15 33.25 68.0972 33.6139 60.4833 32.8833C57.2684 36.9692 55.5315 42.0232 55.5555 47.2222C55.5555 59.4944 64.8805 69.4444 76.3889 69.4444C83.575 69.4444 89.9055 65.5667 93.6528 59.6639C94.1555 54.4639 94.4444 48.5056 94.4444 41.6667C94.4444 36.1111 88.5361 28.6056 83.3333 30.5556Z" fill="#5590E8"/>
<path d="M48.6109 77.7778C53.9803 77.7778 58.3331 73.425 58.3331 68.0555C58.3331 62.6861 53.9803 58.3333 48.6109 58.3333C43.2415 58.3333 38.8887 62.6861 38.8887 68.0555C38.8887 73.425 43.2415 77.7778 48.6109 77.7778Z" fill="#5590E8"/>
<path d="M83.3334 83.3333C86.4016 83.3333 88.8889 80.846 88.8889 77.7778C88.8889 74.7095 86.4016 72.2222 83.3334 72.2222C80.2651 72.2222 77.7778 74.7095 77.7778 77.7778C77.7778 80.846 80.2651 83.3333 83.3334 83.3333Z" fill="#5590E8"/>
<path d="M30.5553 25C30.5553 26.5333 28.6915 27.7778 26.3887 27.7778C24.0859 27.7778 13.8887 20.9778 13.8887 19.4444C13.8887 17.9111 20.0831 18.5889 22.222 19.4444C29.1665 22.2222 30.5553 23.4667 30.5553 25Z" fill="#CCD6DD"/>
<path d="M22.2221 38.8889C23.7562 38.8889 24.9999 37.6452 24.9999 36.1111C24.9999 34.577 23.7562 33.3333 22.2221 33.3333C20.688 33.3333 19.4443 34.577 19.4443 36.1111C19.4443 37.6452 20.688 38.8889 22.2221 38.8889Z" fill="#CCD6DD"/>
<path d="M97.2224 66.6667C96.4857 66.6667 95.7792 66.374 95.2583 65.8531C94.7373 65.3322 94.4447 64.6256 94.4447 63.8889V50C94.4447 46 92.8863 44.4445 88.8891 44.4445C88.1524 44.4445 87.4459 44.1518 86.9249 43.6309C86.404 43.1099 86.1113 42.4034 86.1113 41.6667C86.1113 40.93 86.404 40.2234 86.9249 39.7025C87.4459 39.1816 88.1524 38.8889 88.8891 38.8889C95.9502 38.8889 100 42.9389 100 50V63.8889C100 64.6256 99.7076 65.3322 99.1866 65.8531C98.6657 66.374 97.9592 66.6667 97.2224 66.6667Z" fill="#5590E8"/>
</g>
<defs>
<clipPath id="clip0_225_229">
<rect width="100" height="100" fill="white"/>
</clipPath>
</defs>
</svg>
