<svg xmlns="http://www.w3.org/2000/svg" width="20" height="20" fill="none"><path fill="#fff" d="M10 20a10.1 10.1 0 0 1-9.21-6.1A9.73 9.73 0 0 1 0 10 10.1 10.1 0 0 1 6.1.79 9.74 9.74 0 0 1 10 0a10.1 10.1 0 0 1 9.21 6.1c.53 1.22.79 2.52.79 3.9s-.26 2.68-.79 3.9a10.1 10.1 0 0 1-5.31 5.31A9.73 9.73 0 0 1 10 20Zm0-2c2.23 0 4.13-.77 5.68-2.32A7.72 7.72 0 0 0 18 10c0-2.23-.77-4.13-2.32-5.67A7.72 7.72 0 0 0 10 2c-2.23 0-4.13.77-5.67 2.33A7.72 7.72 0 0 0 2 10c0 2.23.77 4.13 2.33 5.68A7.72 7.72 0 0 0 10 18Z"/><path stroke="#fff" stroke-width="2" d="m5.69 9.27 2.84 2.68M5.69 9.27l2.84 2.68M5.69 9.27l2.84 2.68M5.69 9.27l2.84 2.68M14.74 6.68l-6.16 6.68M14.74 6.68l-6.16 6.68M14.74 6.68l-6.16 6.68M14.74 6.68l-6.16 6.68"/></svg>