<svg width="38" height="38" viewBox="0 0 38 38" fill="none" xmlns="http://www.w3.org/2000/svg">
<path d="M26.95 6.81602L31.184 11.05M29.672 3.08602L18.218 14.54C17.6262 15.131 17.2226 15.884 17.058 16.704L16 22L21.296 20.94C22.116 20.776 22.868 20.374 23.46 19.782L34.914 8.32802C35.2582 7.98383 35.5312 7.57521 35.7175 7.12549C35.9038 6.67578 35.9997 6.19378 35.9997 5.70702C35.9997 5.22026 35.9038 4.73826 35.7175 4.28854C35.5312 3.83883 35.2582 3.43021 34.914 3.08602C34.5698 2.74183 34.1612 2.4688 33.7115 2.28252C33.2618 2.09624 32.7798 2.00037 32.293 2.00037C31.8062 2.00037 31.3242 2.09624 30.8745 2.28252C30.4248 2.4688 30.0162 2.74183 29.672 3.08602Z" stroke="black" stroke-width="4" stroke-linecap="round" stroke-linejoin="round"/>
<path d="M32 26V32C32 33.0609 31.5786 34.0783 30.8284 34.8284C30.0783 35.5786 29.0609 36 28 36H6C4.93913 36 3.92172 35.5786 3.17157 34.8284C2.42143 34.0783 2 33.0609 2 32V10C2 8.93913 2.42143 7.92172 3.17157 7.17157C3.92172 6.42143 4.93913 6 6 6H12" stroke="black" stroke-width="4" stroke-linecap="round" stroke-linejoin="round"/>
</svg>
