<svg xmlns="http://www.w3.org/2000/svg" width="656" height="669" fill="none">
    <g clip-path="url(#a)">
        <path fill="#793FB4" fill-rule="evenodd"
            d="M499.1 31c76.6 31 10.5 155.7 34.5 234.4 22.3 73.4 131.2 130.7 97.4 199.3-33.7 68.4-146.1 15-217.1 43.8-83 33.6-132.5 150.6-221 133.6C101 624.4 18.2 526 21.7 432.9c3.4-89.7 120.8-118.6 186-180.3 31.2-29.3 58-56.4 92-82.3C366.7 119.3 420.4-1 499.1 31Z"
            clip-rule="evenodd" />
        <path fill="#C7B4DA" fill-rule="evenodd"
            d="M491.4 18.7c78.3 28.6 15.5 158 42.1 237 24.9 73.7 136.6 127.7 104.7 198.7-32 70.9-147.1 21-218 52.9-82.8 37.4-129.1 158.2-219 144.4-93.6-14.5-180.3-111.2-179.6-206 .6-91.3 118.3-125.2 182.3-190.4 30.5-31 56.8-59.5 90.4-87.2 66.1-54.5 116.6-178.9 197-149.4Z"
            clip-rule="evenodd" />
        <path fill="#1E4457" fill-rule="evenodd" stroke="#1E4457" stroke-linecap="round" stroke-linejoin="round"
            d="m492.5 466.8-1.1 11.5c-.3 2.1.5 5.6-1.1 7.1-.2.3-.7.3-1 .3-7 1.3-16.6 0-23.7.2-.8 0-1.9.3-2.7.1-1.2-.3-3.2-1-3.6-2.2-.3-.8.4-2 .8-2.9 1.9-3.5 6.7-6.5 9.4-9.4l6.5-7.9 16.5 3.2ZM440.2 459.5 439 471c-.3 2.1.4 5.6-1.2 7.1-.2.2-.7.3-1 .3-7 1.3-16.5 0-23.6.2-.8 0-2 .3-2.7.1-1.3-.3-3.2-1-3.7-2.2-.3-.8.4-2 .8-2.9 2-3.5 6.7-6.5 9.4-9.4l6.6-7.9 16.5 3.2ZM273.5 466.8l-1.1 11.5c-.3 2.1.4 5.6-1.1 7.1-.3.3-.8.3-1 .3-7 1.3-16.6 0-23.7.2-.8 0-2 .3-2.7.1-1.2-.3-3.2-1-3.7-2.2-.3-.8.4-2 .9-2.9 1.9-3.5 6.7-6.5 9.3-9.4 2.1-2.3 4.6-5.5 6.6-7.9l16.5 3.2ZM219.8 459.3l-1.1 11.5c-.3 2.2.4 5.7-1.1 7.2-.3.2-.7.2-1 .3-7 1.2-16.6 0-23.7.2-.8 0-1.9.3-2.7 0-1.2-.2-3.2-1-3.6-2.2-.3-.8.4-2 .8-2.8 1.9-3.5 6.7-6.5 9.4-9.5l6.5-7.8 16.5 3.1Z"
            clip-rule="evenodd" />
        <path fill="#DED5D6" fill-rule="evenodd"
            d="M423.1 456.3c2 1.3 4.6 3.5 6.9 4.2 1.7.6 4.1 0 5.8.5 1.2.4 2.4 2 3.7 2.4 2.1.5 5.4.4 7.1-.9 1.5-1.1 2-4 2.5-5.7 1.3-6 .1-14.2.2-20.2 0-6.6-.8-15.4.2-22 .5-3.2 1.1-7.6 2.9-10.4 1-1.5 3.4-2.5 4.4-4 3.3-4.5 5.2-12.1 6.9-17.5 3.4-10.6 6.2-25.3 8.9-36.1-16.3-4-38.4-18.7-54.3-13.5-7.3 2.3-18 18-18 18 1.7 10 2.7 23.5 5.5 33.2 1.2 4 3.4 9.3 5.4 13a82.6 82.6 0 0 0 10.8 17.3c2 2.3 8 6.3 8 6.3l-6.9 35.4Z"
            clip-rule="evenodd" />
        <path stroke="#DED5D6" stroke-linecap="round" stroke-linejoin="round"
            d="M430 420.9s-6-4-8-6.3c-4.1-4.4-8-11.8-10.8-17.2-2-3.8-4.2-9-5.4-13.1-2.8-9.7-3.8-23.3-5.5-33.3 0 0 10.7-15.6 18-18 16-5.1 38 9.5 54.3 13.6-2.7 10.8-5.5 25.5-9 36.1-1.6 5.4-3.5 13-6.8 17.5-1 1.5-3.4 2.5-4.4 4-1.8 2.8-2.4 7.2-2.9 10.4-1 6.6-.1 15.4-.2 22 0 6 1.1 14.3-.2 20.2-.5 1.8-1 4.6-2.5 5.7-1.7 1.3-5 1.4-7 1-1.4-.4-2.6-2-3.8-2.5-1.7-.6-4.1 0-5.8-.5-2.3-.7-4.8-3-6.9-4.2L430 421Z" />
        <path fill="#DED5D6" fill-rule="evenodd"
            d="M206.5 460.7c-1.3-.6-2.4-2.4-3.5-3.4l5.7-36.5S197 410 193.3 404.3c-4.4-6.6-8.1-16.7-10.5-24.3-2.4-8-4.5-19-5.4-27.3-.5-5-.3-11.8-.5-16.8 2.5-1.5 5.6-4 8.3-5 5.6-2 13.7-2.6 19.6-2.3 6.6.4 15.4 2.4 21.5 5.1 6.3 2.9 16 7 19 13.2.7 1.8 0 4.6 0 6.6l-5.6 29.1c-1 4.7-1.1 11.3-3 15.7-1 2-3.2 4-4.2 5.8a41.7 41.7 0 0 0-3.9 11.3c-.4 2.3 0 5.5 0 7.8-.1 10.4.1 24.2-.9 34.5 0 1 .1 2.2-.4 3a7 7 0 0 1-4.8 2.8c-1.4.1-3-1.5-4.5-1.9-3.4-.9-8.4.7-11.5-.9Z"
            clip-rule="evenodd" />
        <path stroke="#DED5D6" stroke-linecap="round" stroke-linejoin="round"
            d="M203 457.3c1 1 2.2 2.8 3.5 3.4 3 1.6 8.1 0 11.5.9 1.4.4 3 2 4.5 2a7 7 0 0 0 4.8-2.9c.5-.8.4-2 .4-3 1-10.3.8-24.1 1-34.5 0-2.3-.5-5.5 0-7.8.5-3.5 2.2-8.1 3.8-11.3 1-1.9 3.3-3.9 4.1-5.8 2-4.4 2.2-11 3-15.7 1.8-8.7 4-20.3 5.6-29 0-2 .8-4.9 0-6.7-2.8-6.3-12.6-10.3-19-13.2-6-2.7-14.8-4.7-21.4-5-6-.4-14 .3-19.6 2.3-2.7 1-5.8 3.4-8.3 4.9.2 5 0 11.8.5 16.8 1 8.3 3 19.4 5.4 27.3 2.4 7.6 6.1 17.7 10.5 24.3 3.7 5.7 15.4 16.5 15.4 16.5l-5.7 36.5Z" />
        <path fill="#F4FCEF" fill-rule="evenodd"
            d="M562.4 353.7c2.5 2.9 6.3 6.3 9 9l-6 5.8s-5.7-5-8-7.4a75 75 0 0 1-8.7-10.9c-3.2-5.2-6.2-13-8-18.8-1.9-5.5-3.6-13-4.4-18.8-1-6.9-.9-16.1-1.2-23-.6-13.4-.5-31.2-1.5-44.6-.5-7.2-1.6-16.9-2.6-24.1-.3-2.3-.9-5.2-1.1-7.5-.2-1.7-.7-4.2-.2-5.9.3-1.3 1.3-3.3 2.5-4a4 4 0 0 1 3-.2c1.1.4 1.9 2 2.7 3 1.6 15.3 4.6 35.6 5.3 51 .5 10.2-1 24-.3 34.2.5 8 1.8 18.9 3.4 26.8a108 108 0 0 0 10.7 28.4c1.4 2.3 3.6 5 5.4 7Z"
            clip-rule="evenodd" />
        <path stroke="#F4FCEF" stroke-linecap="round" stroke-linejoin="round"
            d="M571.4 362.7c-2.7-2.7-6.5-6.1-9-9-1.8-2-4-4.7-5.4-7a108 108 0 0 1-10.7-28.4c-1.6-8-3-18.7-3.4-26.8-.6-10.3.8-24 .3-34.3-.7-15.3-3.7-35.6-5.3-51-.8-.8-1.6-2.5-2.7-3a4 4 0 0 0-3 .3c-1.2.7-2.2 2.7-2.5 4-.5 1.7 0 4.2.2 6 .2 2.2.8 5.1 1.1 7.4 1 7.2 2 16.9 2.6 24.1 1 13.4 1 31.2 1.5 44.6.3 6.9.3 16.1 1.2 23 .8 5.7 2.5 13.3 4.3 18.8a98.7 98.7 0 0 0 8.1 18.8 75 75 0 0 0 8.8 11c2.2 2.3 8 7.3 8 7.3l6-5.8Z" />
        <path fill="#1E4457" fill-rule="evenodd"
            d="m605.6 372.6-4.3.3c-1.9-.1-4.5-.4-6.2-1-2.2-1-4.9-2.8-6.4-4.6-1.2-1.3-1.9-3.5-2.8-5-1.3-1.9-2.8-4.7-4.7-6a16.4 16.4 0 0 0-15.4-.6c-1.1.6-2.2 1.9-3 2.7-1.3 1.7-3.6 3.7-4.3 5.7-.5 1.3-.4 3.3-.4 4.7 0 2.3.3 5.4 1.2 7.4 1 2.4 3.4 4.9 5.3 6.6 1.8 1.8 4.5 4 6.8 5 2.1.9 7.4 1.2 7.4 1.2l-1.2-2.5c1.3.6 2.9 1.5 4.2 1.8 2.7.5 6.4.4 9-.1 3.8-.9 8.6-3.4 11.9-5.6 2.1-1.4 6.4-5.8 6.4-5.8l-5.7-.2 2.2-4Z"
            clip-rule="evenodd" />
        <path stroke="#1E4457" stroke-linecap="round" stroke-linejoin="round"
            d="M578.8 389s-5.3-.3-7.4-1.2c-2.3-1-5-3.2-6.8-5a24.2 24.2 0 0 1-5.3-6.6c-1-2-1.1-5.1-1.2-7.4 0-1.4-.1-3.4.4-4.7.7-2 3-4 4.2-5.7 1-.8 2-2.1 3-2.7a16.4 16.4 0 0 1 15.5.6c1.9 1.3 3.4 4.1 4.7 6 1 1.5 1.6 3.7 2.8 5 1.5 1.8 4.2 3.6 6.4 4.5 1.7.7 4.3 1 6.2 1 1.3.1 3 0 4.3-.2l-2.2 4 5.7.2s-4.3 4.4-6.4 5.8c-3.3 2.2-8 4.7-12 5.6-2.5.5-6.2.6-8.9 0-1.3-.2-3-1.1-4.2-1.7l1.2 2.5Z" />
        <path fill="#FFA5A5" fill-rule="evenodd"
            d="M441.3 385.4c.1 2.7-.5 6.4.4 9 .5 1.2 1.4 3 2.6 3.7 1.7.8 4.7.7 6.3-.2 1-.6 2-2 2.3-3.1.9-2.4.1-6 .2-8.5l-.2-34.7c-15.7-.3-36.9-3.6-52.4-1-8 1.5-25.8 9.1-25.8 9.1 1 3 1.7 7.5 3.5 10.2 1.2 2 3.7 4 5.4 5.5l5.2 4.3-.9 6.7c-.2 2.4-1 5.7-.1 8 .6 1.5 2 3.4 3.6 4 1.4.7 3.8.8 5.3 0a8 8 0 0 0 3.3-4c.9-2.2.1-8.1.1-8.1 2.7.9 6.2 2.5 9 3 1.8.3 6 .4 6 .4l.5 3.2c.2 2.2-.8 5.3.2 7.3.4 1 1.6 2.4 2.7 2.7 1.5.5 3.8-.5 5.3-1.3.7-.4 1.7-1 2.1-1.8 1.5-2.7.2-10.2.2-10.2 3-.6 7-1.1 9.9-2 1.6-.5 5.3-2.2 5.3-2.2Z"
            clip-rule="evenodd" />
        <path stroke="#FFA5A5" stroke-linecap="round" stroke-linejoin="round"
            d="M374.7 359.7s17.8-7.6 25.8-9c15.5-2.7 36.7.6 52.4.9l.2 34.7c0 2.5.7 6-.2 8.4-.4 1.2-1.3 2.6-2.3 3.2-1.6 1-4.6 1-6.3.2-1.2-.7-2.1-2.5-2.6-3.8-.9-2.5-.3-6.2-.4-8.9 0 0-3.7 1.7-5.3 2.2-3 .9-7 1.4-10 2 0 0 1.4 7.5 0 10.2-.5.7-1.5 1.4-2.2 1.8-1.5.8-3.8 1.8-5.3 1.3-1.1-.3-2.3-1.6-2.7-2.7-1-2 0-5.1-.2-7.3 0-1-.3-2.2-.4-3.2 0 0-4.3 0-6-.4-2.9-.5-6.4-2.1-9-3 0 0 .7 5.9-.2 8.2a8 8 0 0 1-3.3 4c-1.5.7-3.9.6-5.3 0-1.5-.7-3-2.6-3.6-4.2-.9-2.2 0-5.5.1-7.9l.9-6.7-5.2-4.3c-1.7-1.6-4.2-3.5-5.4-5.5-1.8-2.7-2.5-7.1-3.5-10.2Z" />
        <path fill="#E49598" fill-rule="evenodd"
            d="M451.4 366.3c-6.3 1.3-14.6 3.6-21 4.2-6.2.6-14.6.7-20.8 0-7.3-1-17-3.4-23.8-6-2.3-1-5-2.7-7.3-3.8 17.5-2.6 40.5-7.8 58.1-8.4 4.2-.2 13.8.7 13.8.7l1 13.3Z"
            clip-rule="evenodd" />
        <path stroke="#E49598" stroke-linecap="round" stroke-linejoin="round"
            d="M450.4 353s-9.6-.9-13.8-.7c-17.6.6-40.6 5.8-58 8.4 2.1 1 5 2.8 7.2 3.7 6.9 2.7 16.5 5.1 23.8 6 6.2.8 14.6.7 20.8.1 6.4-.6 14.7-3 21-4.2l-1-13.3Z" />
        <path fill="#F4FCEF" fill-rule="evenodd"
            d="M474.9 457.2c.7-9 4.9-20.3 7-29 0 0-7-6.3-9.4-9.4a105 105 0 0 1-18.6-39c-1.5-5.7-2.9-13.3-3.5-19.1-.1-1 .2-2.6-.2-3.5a9.4 9.4 0 0 0-5-4.3c-3.4-1-8 1.3-11.4 1.7-35.2 4.7-82.4 8.8-117.7 12.1l-16 1.4c-1 1-2.4 2.2-3 3.5-2.2 4-2.3 10.2-3.2 14.6-.9 4.1-2.1 9.6-2.7 13.8-.2 1.5 0 3.6-.5 5-.9 2.1-3.7 3.8-4.8 5.8a34 34 0 0 0-3.6 10.7c-.4 2.4.2 5.6.3 8 .1 10.3-.3 24.1-.3 34.5 0 0-2 3.8-3.4 4.8a9.5 9.5 0 0 1-4.9 1.2c-1.2 0-2.8-.9-4-1-1.6-.2-4 .3-5.6 0-1.7-.4-4.2-1-5.6-2.2a7 7 0 0 1-2.2-3.3c-.6-2.4 1-5.7 1.5-8.2 1.4-8.3 3-19.3 4.3-27.6 0 0-6.5-5.7-8.9-8.5a96.6 96.6 0 0 1-10-15.8c-2.9-5.6-6-13.5-7.8-19.6-.7-2.7-.3-6.7-1.8-9.2-1-1.8-3.4-3.6-5.3-4.5-3.8-2-10-1.8-14-3.4a123 123 0 0 1-27.9-15.5 72.2 72.2 0 0 1-11.2-11c-4.5-5.5-9-14-12.3-20.2-5.6-10.4-13.6-24.4-16.5-35.9-2-8.4-1.5-20.2-1.7-28.9-.6-20-2.6-47 .6-67 1-6.9 4.6-15.7 6.6-22.5 26.3 3.6 61.3 9.9 87.8 12.2 50 4.3 117.2 6.7 167.5 5 23.6-.9 55-4.9 78.5-7.3 2.8-.3 6.5-1.1 9.3-1 6.1.2 14.5 1.6 20 4.3a52 52 0 0 1 16.1 13.6c5.7 7.3 10.8 19 12.8 28 1.8 8.4.8 20 0 28.5-2.4 26.6-11.8 61.2-17.9 87.2-5 21.6-10.5 50.8-18.4 71.4-1.5 4-5 8.6-6 12.6-3.2 12.7 5 31.2.8 43.5-.7 2.2-2.2 5.6-4.3 6.5-2.3 1-5.5-1.5-7.9-1.7-1.8-.2-4.2.2-6 0-2.8-.3-7.4 0-9.2-2.2-1.7-2.1-.6-6.4-.4-9.1Z"
            clip-rule="evenodd" />
        <path stroke="#F4FCEF" stroke-linecap="round" stroke-linejoin="round" stroke-width="2"
            d="M481.9 428.2c-2.1 8.7-6.3 20-7 29-.2 2.7-1.3 7 .4 9.1 1.8 2.2 6.4 1.9 9.2 2.2 1.8.2 4.2-.2 6 0 2.4.2 5.6 2.6 7.9 1.7 2.1-.9 3.6-4.3 4.3-6.5 4.2-12.3-4-30.8-.9-43.5 1-4 4.6-8.6 6.1-12.6 8-20.6 13.4-49.8 18.4-71.4 6-26 15.5-60.6 17.9-87.2.8-8.5 1.8-20.1 0-28.5-2-9-7.1-20.7-12.8-28a52 52 0 0 0-16.1-13.7c-5.5-2.6-13.9-4-20-4.2-2.8-.1-6.5.7-9.3 1-23.5 2.4-54.9 6.4-78.5 7.2-50.3 1.8-117.4-.6-167.5-5-26.5-2.2-61.5-8.5-87.8-12.1-2 6.8-5.5 15.6-6.6 22.6-3.2 19.8-1.2 46.8-.6 67 .2 8.6-.3 20.4 1.7 28.8 2.9 11.5 11 25.5 16.5 36 3.4 6.2 7.8 14.6 12.3 20 3 3.8 7.5 8.2 11.2 11a123 123 0 0 0 27.8 15.6c4 1.6 10.3 1.3 14 3.4 2 1 4.4 2.7 5.4 4.5 1.5 2.5 1 6.5 1.8 9.2 1.8 6.1 5 14 7.8 19.6 2.6 5 6.5 11.5 10 15.8a115 115 0 0 0 8.9 8.5l-4.3 27.6c-.4 2.5-2 5.8-1.5 8.2a7 7 0 0 0 2.2 3.3c1.4 1.1 3.9 1.8 5.6 2.2 1.7.3 4-.2 5.6 0 1.2.1 2.8 1 4 1 1.5 0 3.6-.3 4.9-1.2 1.4-1 3.4-4.8 3.4-4.8 0-10.4.4-24.2.3-34.5 0-2.4-.7-5.6-.3-8a34 34 0 0 1 3.6-10.7c1.1-2 4-3.7 4.8-5.8.5-1.4.3-3.5.5-5 .6-4.2 1.8-9.7 2.7-13.8.9-4.4 1-10.7 3.1-14.6.7-1.3 2.2-2.5 3.1-3.5l16-1.4c35.3-3.3 82.5-7.4 117.7-12 3.4-.5 8-2.8 11.3-1.8 2 .6 4.2 2.5 5 4.3.5 1 .1 2.4.3 3.5a133.4 133.4 0 0 0 10.9 39.7 105 105 0 0 0 11.2 18.4 120 120 0 0 0 9.4 9.4Z" />
        <path fill="#1E4457" fill-rule="evenodd"
            d="M442 179.6c.6 0 2-.7 2 0 0 0-4 4.6-6 6.2a129 129 0 0 1-20.7 12.9c-4.7 2.4-11.8 3.8-16 6.9A50 50 0 0 0 391 217a91 91 0 0 0-9 18.5c-2.4 6.5-2.3 16.1-5 22.4a59 59 0 0 1-12 18.5 49 49 0 0 1-17.6 9.9c-11.2 3.3-27.3 1.9-39 1a199 199 0 0 1-30.2-5.4c-7.5-2-17.7-4.4-24.4-8.2-7-3.9-15.4-11-20.5-17.2-3.8-4.7-8-11.8-9.8-17.5-1.5-4.6-2.1-11-2-15.8.1-5.7 1.8-13.2 3.2-18.7 1.6-6.3 5.8-14 7.1-20.2.5-2 .2-5 .8-7l.6-1.3c13.8 1.2 32.2 3 46 3.8 25.9 1.6 60.5 3 86.5 3 22.8-.2 53.3-2.7 76.2-3.3Z"
            clip-rule="evenodd" />
        <path stroke="#1E4457" stroke-linecap="round" stroke-linejoin="round"
            d="M444 179.5c0 .2-.4.4-.4.4m.5-.4c0-.6-1.5 0-2.1 0-23 .7-53.4 3.2-76.2 3.3-26 .2-60.6-1.3-86.5-2.9-13.8-.8-32.2-2.6-46-3.8l-.6 1.4c-.6 2-.3 4.8-.8 6.9-1.3 6.2-5.5 14-7.1 20.2-1.4 5.5-3 13-3.2 18.7-.1 4.8.5 11.2 2 15.8 1.8 5.7 6 12.8 9.8 17.5 5.1 6.2 13.5 13.3 20.5 17.2 6.7 3.8 16.9 6.2 24.4 8.2a199 199 0 0 0 30.3 5.4c11.6.9 27.7 2.3 39-1a49 49 0 0 0 17.4-9.9 59 59 0 0 0 12.1-18.5c2.7-6.3 2.6-15.9 5-22.4a91 91 0 0 1 9-18.5 50 50 0 0 1 10.1-11.5c4.3-3.1 11.4-4.5 16-7a129 129 0 0 0 20.8-12.8c2-1.6 6-6.3 6-6.3Z" />
        <path fill="#1E4457" fill-rule="evenodd"
            d="M545.4 242.3c-.3 4.3-.2 10-1.2 14.2 0 0-4.6-4.4-6.8-6-5-3.6-12.4-7-17.5-10.3-4.4-2.8-10.3-6.7-14.3-10-3.9-3.3-9-8-11.9-12a47 47 0 0 1-6.3-11.8 37 37 0 0 1-1.6-11.1c.1-3.6 1.3-8.4 2.4-11.9.7-2.1 2.3-4.8 3.2-6.8.3-.7.5-1.9 1-2.4l.7-.1a45.2 45.2 0 0 1 19 2.1c3.9 1.5 8.7 4.8 12 7.5 3.6 2.8 8 7.3 10.6 11a65 65 0 0 1 11.6 35c.3 3.8-.6 8.9-.9 12.6Z"
            clip-rule="evenodd" />
        <path stroke="#1E4457" stroke-linecap="round" stroke-linejoin="round"
            d="M544.2 256.5v.2c1-4.3.9-10.1 1.2-14.4.3-3.7 1.2-8.8 1-12.6a65 65 0 0 0-11.6-35c-2.8-3.7-7-8.2-10.7-11-3.3-2.7-8.1-6-12.1-7.5a45.2 45.2 0 0 0-19-2.1l-.5.1c-.6.5-.8 1.7-1.1 2.4-1 2-2.5 4.7-3.2 6.8a45.8 45.8 0 0 0-2.4 11.9c0 3.4.6 7.9 1.6 11a47 47 0 0 0 6.3 11.8c3 4.1 8 8.8 11.9 12 4 3.4 9.9 7.3 14.3 10 5.1 3.4 12.6 6.8 17.5 10.4 2.2 1.6 6.8 6 6.8 6Z" />
        <path fill="#1E4457" fill-rule="evenodd"
            d="m529.4 325.6-7.5-7.7c-3-3.4-7-7.9-9.8-11.6-2.7-3.7-5.5-9.2-8.2-13a52.4 52.4 0 0 0-20.8-19.7c-3.2-1.5-7.9-2.9-11.4-2.8-3 .1-7 1.5-9.7 3-1.6.8-3.7 2.3-5 3.6a19 19 0 0 0-4.7 6.8c-.7 2.4-.4 6 .3 8.4 1.8 6.1 8.3 12.4 11.4 18 1.4 2.6 3.5 6 4.2 8.9.7 3 .3 7.2.5 10.3.1 3.1 0 7.3.7 10.3 1 4 3.6 8.8 5.9 12.2a87 87 0 0 0 11.5 13c3.8 3.7 9.8 7.5 13.7 11.1 2.6 2.4 6 5.7 8.1 8.6 1.6 2.1 2.8 5.5 4.1 7.7l.5.8s5.2-19.2 7.2-27.4c3-12 6.3-28.3 9-40.5Zm-16.7 67.1s.3.7.5.8l-.5-.8Z"
            clip-rule="evenodd" />
        <path stroke="#1E4457" stroke-linecap="round" stroke-linejoin="round"
            d="M512.7 392.7c-1.3-2.2-2.5-5.6-4-7.7-2.1-3-5.6-6.2-8.2-8.6-4-3.6-9.9-7.4-13.7-11a87 87 0 0 1-11.5-13 46.3 46.3 0 0 1-6-12.3c-.7-3-.5-7.2-.6-10.3-.2-3 .2-7.3-.5-10.3-.7-2.9-2.8-6.3-4.2-9-3-5.5-9.6-11.8-11.4-17.9-.7-2.4-1-6-.3-8.4.7-2.4 3-5 4.7-6.8 1.3-1.3 3.4-2.8 5-3.7 2.7-1.4 6.7-2.8 9.7-2.9 3.5 0 8.2 1.3 11.4 2.8 4.3 2 9.4 6.2 12.8 9.5 2.8 2.7 5.8 7 8 10.2 2.7 3.8 5.5 9.3 8.2 13 2.7 3.7 6.7 8.2 9.8 11.6l7.5 7.7c-2.7 12.2-6 28.4-9 40.5-2 8.2-7.2 27.4-7.2 27.3m-.5-.7.5.8m-.5-.8s.3.7.5.8m-.5-.8.5.8" />
        <path fill="#1E4457" fill-rule="evenodd" stroke="#1E4457" stroke-linecap="round" stroke-linejoin="round"
            d="M168.2 263.7c1.6 1.4 2.2 4.5 3.1 6.5 2.5 5.1 5.4 12 8.2 17 2.3 4.3 5.1 10.4 8.5 14 3 3.2 8.6 6 12.3 8.6 3.5 2.6 8.6 5.6 11.7 8.8a48.2 48.2 0 0 1 11.9 24.5c.6 4.9-.1 11.5-1 16.3-.6 3-.3 8.2-3 9.5-1 .5-2.6-.4-3.7-.7a89 89 0 0 1-17-7 97.6 97.6 0 0 1-24-19.8c-4.4-5.5-9.6-13.5-12.6-19.9-3.3-7-6.3-17.2-7.7-25-1.8-9.3-5-22.6-2-31.7.6-1.6 2.4-3.3 3.4-4.7 0 0 9 1 11.9 3.6Z"
            clip-rule="evenodd" />
        <path fill="#1E4457" fill-rule="evenodd"
            d="M226 163.6c-2.5-1.8-5.4-4.7-8-6.1a33 33 0 0 0-18-3.2c-3.4.4-7.8 1.8-10.8 3.4-3.5 2-7.4 5.6-10 8.6-2 2.3-3.7 6-5.3 8.5l5 14.3c2.3 1 5.3 2.8 7.8 3.5a34.4 34.4 0 0 0 16.2.6 34 34 0 0 0 10.3-4.7 37.4 37.4 0 0 0 12.5-17c.5-2.3.2-7.9.2-7.9Z"
            clip-rule="evenodd" />
        <path stroke="#1E4457" stroke-linecap="round" stroke-linejoin="round"
            d="m178.8 189.1-5-14.3c1.7-2.5 3.4-6.2 5.4-8.5 2.6-3 6.5-6.7 10-8.6 3-1.6 7.4-3 10.8-3.4a33.1 33.1 0 0 1 18 3.2c2.6 1.4 5.5 4.3 8 6.1 0 0 .2 5.6-.3 7.8a37.4 37.4 0 0 1-12.5 17 34 34 0 0 1-10.3 4.8 35 35 0 0 1-16.2-.6c-2.5-.7-5.5-2.4-7.9-3.5Z" />
        <path fill="#13313C" fill-rule="evenodd" stroke="#13313C" stroke-linecap="round" stroke-linejoin="round"
            d="M180 187.5c3.7.2 8.5.6 12.1.6 2.7 0 6.2 0 8.8-.6a21 21 0 0 0 6-2.3c2.8-1.9 6.4-5 8-8 1-1.8 1.6-4.5 1.5-6.6-.2-1.8-1.1-4.4-2.3-5.8-1.4-1.6-4-3-6.1-3.5a27.3 27.3 0 0 0-17.2 2.5 47 47 0 0 0-8.5 6.6c-1.9 1.7-4 4.3-5.7 6.2l3.5 11Z"
            clip-rule="evenodd" />
        <path fill="#1E4457" fill-rule="evenodd"
            d="M29 163.3c2.3-1.9 5.1-4.8 7.7-6.2a30.8 30.8 0 0 1 17.2-3.2c3.3.5 7.5 1.8 10.4 3.5a40 40 0 0 1 9.6 8.6c1.8 2.3 3.5 5.9 5 8.5l-4.7 14.3c-2.3 1-5.2 2.7-7.5 3.4a31.9 31.9 0 0 1-15.6.7 32 32 0 0 1-9.8-4.7 36.6 36.6 0 0 1-12-17.1c-.6-2.3-.2-7.8-.2-7.8Z"
            clip-rule="evenodd" />
        <path stroke="#1E4457" stroke-linecap="round" stroke-linejoin="round"
            d="m74.2 188.8 4.8-14.3c-1.6-2.6-3.3-6.2-5.1-8.5a40 40 0 0 0-9.6-8.6c-2.9-1.7-7.1-3-10.4-3.5a30.6 30.6 0 0 0-17.2 3.2c-2.6 1.4-5.4 4.3-7.6 6.2 0 0-.4 5.5.2 7.8a36.6 36.6 0 0 0 12 17A32 32 0 0 0 51 193a32.4 32.4 0 0 0 15.6-.7c2.3-.7 5.2-2.4 7.5-3.4Z" />
        <path fill="#13313C" fill-rule="evenodd" stroke="#13313C" stroke-linecap="round" stroke-linejoin="round"
            d="M73 187.2c-3.4.2-8 .6-11.5.5-2.6 0-6 0-8.4-.5-1.9-.4-4.2-1.4-5.8-2.4-2.8-1.8-6.1-5-7.6-8a14 14 0 0 1-1.5-6.5c.2-1.9 1-4.4 2.2-5.8 1.3-1.6 3.9-3 5.9-3.6a25.4 25.4 0 0 1 16.4 2.6A45 45 0 0 1 71 170c1.8 1.7 3.8 4.4 5.4 6.2l-3.3 11Z"
            clip-rule="evenodd" />
        <path fill="#fff" fill-rule="evenodd"
            d="M127 304.4c-8.7 0-20.2-2.4-28.8-3.4 0 0-4.6-13-6.4-18.7a1861 1861 0 0 1-12-38c-2-6.7-4.5-15.8-6.6-22.5-.6-2-1.7-4.5-2-6.5a85.2 85.2 0 0 1 4.7-42.8 50.7 50.7 0 0 1 12-16.7 46.1 46.1 0 0 1 16.6-7.4c8.2-2 19.8-1.3 28.2-.9 6.8.3 15.8 1.3 22.3 3 2.5.6 5.6 2 8 3 1.8 1.6 4.2 3.7 5.7 5.5a49.5 49.5 0 0 1 11 19.3c1.6 5 2.6 12 3 17.3a85 85 0 0 1 .6 15.3c-.6 6-3.2 13.7-4.8 19.5-2.7 10.1-7.1 23.4-10.3 33.4-2.2 7.3-5.1 17.1-7.7 24.3-1.4 4-1.8 10.4-5 13.1-6.6 5.6-20 3.3-28.6 3.2Z"
            clip-rule="evenodd" />
        <path stroke="#fff" stroke-linecap="round" stroke-linejoin="round"
            d="M98.2 301c8.6 1 20 3.4 28.7 3.4s22 2.4 28.6-3.2c3.2-2.7 3.6-9.1 5-13 2.6-7.3 5.5-17.1 7.7-24.4 3.2-10 7.6-23.3 10.3-33.4 1.6-5.8 4.2-13.5 4.8-19.5a85 85 0 0 0-.5-15.3c-.5-5.3-1.5-12.3-3-17.3a49.5 49.5 0 0 0-11-19.3c-1.6-1.8-4-3.9-5.7-5.6-2.5-.8-5.6-2.3-8-3-6.6-1.6-15.6-2.6-22.4-2.9-8.4-.4-20-1-28.2.9-5.4 1.3-12.4 4-16.7 7.4-4.7 3.9-9.3 11.1-11.9 16.7a85.2 85.2 0 0 0-4.8 42.8c.4 2 1.5 4.5 2.1 6.5 2.1 6.7 4.6 15.8 6.7 22.5a1861 1861 0 0 0 11.9 38c1.8 5.6 6.4 18.7 6.4 18.7Z" />
        <path fill="#1E4457" fill-rule="evenodd"
            d="M95 268.9c-1.6 1.8-4.1 3.8-6 5.5l-14.3-47-2.8-9.4s-.7-2-.8-3c-.5-3.2-2.2-8.6.2-10.8.2-.2.7-.1 1-.2 4.8-1.6 10.5-5.6 15-7.8 2.5-1.3 5.8-3.2 8.4-4 2.6-.7 6.3-1.2 9-1 2 .3 4.8 1.3 6.6 2.4a18.4 18.4 0 0 1 8.1 11.4c.6 2.5.8 5.9.1 8.3-.8 3-3.5 6.3-5.5 8.7-2 2.4-5.8 4.8-8 7.2-1.5 1.7-3.5 4-4.7 6-.8 1.6-2 3.6-2 5.3-.2 1.9 1 4.2 1.5 6 .6 2 2 4.5 2 6.6.1 2.5-1 5.8-2 8.1a36.4 36.4 0 0 1-5.7 7.7Z"
            clip-rule="evenodd" />
        <path stroke="#1E4457" stroke-linecap="round" stroke-linejoin="round"
            d="M89 274.4c1.9-1.7 4.4-3.7 6-5.5 2-2.2 4.6-5.1 5.8-7.7 1-2.3 2.1-5.6 2-8.1 0-2.1-1.4-4.7-2-6.7-.5-1.7-1.7-4-1.6-5.9.1-1.7 1.3-3.7 2.1-5.2 1.2-2 3.2-4.4 4.7-6 2.2-2.5 6-4.9 8-7.3 2-2.4 4.7-5.7 5.5-8.7a18.8 18.8 0 0 0-8.2-19.7c-1.8-1.1-4.5-2-6.6-2.3-2.7-.3-6.4.2-9 1-2.6.7-5.9 2.6-8.3 3.9-4.6 2.2-10.3 6.2-15.1 7.8-.3.1-.8 0-1 .2-2.4 2.2-.7 7.6-.2 10.8.1 1 .8 3 .8 3l2.8 9.4c4.2 14.1 14.4 47 14.4 47Z" />
        <path fill="#1E4457" fill-rule="evenodd"
            d="M140.8 175.1c2.7 0 6.2.7 8.7.3 1.8-.3 4.2-1 5.7-2.1 2-1.4 4.3-4 5.3-6.3a22 22 0 0 0 1.3-9c0-2.3-.5-5.5-1.6-7.5-.8-1.4-2.5-2.7-3.7-3.8l-4.4-3.6c-1.3-2.6-2.6-6.4-4.5-8.7a18 18 0 0 0-5.7-4.6 19.7 19.7 0 0 0-9-1.3c-1.2.1-2.5 1-3.6 1.2-1 .1-2.6-.1-3.7-.2-2.8-.2-6.4-1.2-9.1-.9-2.5.3-5.8 1.4-7.9 2.9a18 18 0 0 0-5 5.8c-.7 1.6-.5 4.2-1.5 5.7-.4.6-1.3 1-1.8 1.4-2 1.7-5.4 3.4-6.7 5.6a19.4 19.4 0 0 0-2 8.4c0 2.1.2 5 1 7 1 2.6 3 6 5.4 7.6 2 1.4 5.5 1.6 7.9 2 2.2.4 7.6.6 7.6.6 2 1.5 4.2 4 6.4 4.8 2.9 1.2 7.2 1.7 10.3 1.2 2-.4 4.5-1.8 6.2-2.9 1.5-.9 4.4-3.6 4.4-3.6Z"
            clip-rule="evenodd" />
        <path stroke="#1E4457" stroke-linecap="round" stroke-linejoin="round"
            d="M113.5 175.6s-5.4-.2-7.6-.6c-2.4-.4-5.9-.6-8-2-2.3-1.5-4.4-5-5.4-7.6-.7-2-1-4.9-.9-7 .1-2.6.6-6.2 2-8.4 1.3-2.2 4.7-4 6.7-5.6.5-.4 1.4-.8 1.8-1.4 1-1.5.8-4.1 1.6-5.7 1-2 3-4.5 4.9-5.8 2-1.5 5.4-2.6 7.9-2.9 2.7-.3 6.3.7 9 1 1.2 0 2.7.2 3.8 0 1.1-.1 2.4-1 3.5-1.1 2.8-.3 6.6.2 9 1.3 2.1.9 4.4 3 5.8 4.6 1.9 2.3 3.2 6.1 4.5 8.7l4.4 3.6c1.2 1.1 2.9 2.4 3.7 3.8 1 2 1.5 5.2 1.6 7.5a22 22 0 0 1-1.3 9c-1 2.2-3.2 4.9-5.3 6.3-1.5 1-3.9 1.8-5.7 2-2.5.5-6-.1-8.7-.2 0 0-3 2.7-4.4 3.6-1.7 1.1-4.2 2.5-6.2 2.9-3 .5-7.4 0-10.3-1.2-2.2-.9-4.5-3.3-6.4-4.8Z" />
        <path fill="#FF7F80" fill-rule="evenodd"
            d="M159.5 306c1.3 1.2 1.9 3.6 2.7 5 0 0 .1 9.3-1.8 12.6a17.9 17.9 0 0 1-10.6 6.8c-5.4 1-12.8-.3-18.3-.6a436 436 0 0 1-30.7-2.4s-3.7-2.8-4.8-4.4c-1.4-2-2.3-5.3-3-7.6-.8-2.7-1.6-6.4-1.9-9.2-.2-1.4-.1-3.3-.1-4.7 1.8-.9 4-2.5 6-3 11-2.6 26.4 1.4 37.6 3 7.5 1 19-.3 25 4.6Z"
            clip-rule="evenodd" />
        <path stroke="#FF7F80" stroke-linecap="round" stroke-linejoin="round"
            d="M100.8 327.4s-3.7-2.8-4.8-4.4c-1.4-2-2.3-5.3-3-7.6-.8-2.7-1.6-6.4-1.9-9.2-.2-1.4-.1-3.3-.1-4.7 1.8-.9 4-2.5 6-3 11-2.6 26.4 1.4 37.6 3 7.5 1 19-.3 25 4.6 1.2 1 1.8 3.5 2.6 5 0 0 .1 9.2-1.8 12.5a17.9 17.9 0 0 1-10.6 6.8c-5.4 1-12.8-.3-18.3-.6a436 436 0 0 1-30.7-2.4Zm0 0 2 .2" />
        <path fill="#5C000C" fill-rule="evenodd" stroke="#5C000C" stroke-linecap="round" stroke-linejoin="round"
            d="M128.8 300.4c16.7 1.1 22.1 7.8 21.8 12.6-.3 4.8-6.5 10.7-23.2 9.6-16.8-1.1-22.1-7.8-21.8-12.6.3-4.8 6.5-10.7 23.2-9.6Z"
            clip-rule="evenodd" />
        <path fill="#FFA5A5" fill-rule="evenodd"
            d="M151.6 281.8h-49.8c-1.3.5-3.1 1-4.4 1.6-1.4.7-3.2 1.8-4.4 2.9a25 25 0 0 0-5.7 8.7l.2 14.5c.3 1.2.6 2.9 1.1 4 .8 1.4 2.2 3 3.3 4.2 1.2 1.4 2.9 3.2 4.5 4.1 1.5.9 5.3 1.7 5.3 1.7h50.7c2.7-1.4 6.7-2.6 9-4.6 1.6-1.4 3.3-3.8 4.3-5.8.5-1.1 1-4.1 1-4.1v-12.4c-1-2.4-1.8-5.9-3.4-8a21.9 21.9 0 0 0-6.2-4.9c-1.6-.8-5.5-2-5.5-2Z"
            clip-rule="evenodd" />
        <path stroke="#FFA5A5" stroke-linecap="round" stroke-linejoin="round"
            d="M152.4 323.5h-50.7s-3.8-.8-5.3-1.7c-1.6-.9-3.3-2.7-4.5-4-1.1-1.3-2.5-2.9-3.3-4.3-.5-1.1-.8-2.8-1.1-4l-.2-14.5s1.3-2.9 2-4a25 25 0 0 1 3.7-4.7c1.2-1 3-2.2 4.4-2.9 1.3-.6 3.1-1 4.4-1.6h49.8s4 1 5.5 1.9c2 1.1 4.7 3.1 6.2 5 1.6 2 2.4 5.5 3.5 7.9V309s-.6 3-1.1 4.1c-1 2-2.7 4.4-4.3 5.8-2.3 2-6.3 3.2-9 4.6Z" />
        <path fill="#FF7F80" fill-rule="evenodd" stroke="#FF7F80" stroke-linecap="round" stroke-linejoin="round"
            d="M142.7 303.7c.7-.7 1-2 1.3-3 .3-1.5-.4-3.6.2-5 .2-.4.7-1 1.1-1.3.5-.2 1.2-.3 1.8-.3.6.1 1.5.4 2 .9.7.7.9 2.2 1 3.3a12 12 0 0 1-.1 4.8 13.5 13.5 0 0 1-7.8 7.8c-1.4.4-3.6.6-5 0-.7-.3-1.7-1-2-1.8-.2-1 .4-2.4 1-3.1.7-.6 2-.8 2.8-1l1.6-.2s1.6-.6 2.1-1.1ZM111.3 303.5a7 7 0 0 1-1.4-3c-.3-1.5.5-3.6-.2-5-.2-.5-.7-1-1.2-1.3-.5-.3-1.3-.4-1.9-.3a4 4 0 0 0-2 .8c-.8.8-1.1 2.3-1.3 3.3-.2 1.4-.2 3.5.2 4.8a13.8 13.8 0 0 0 8.3 7.8c1.6.5 4 .7 5.4.1.8-.3 1.9-1 2.1-1.8.3-1-.4-2.5-1.1-3.2-.7-.6-2-.7-2.9-1l-1.7-.1s-1.8-.6-2.3-1.1Z"
            clip-rule="evenodd" />
        <path fill="#fff" fill-rule="evenodd" stroke="#000" stroke-linecap="round" stroke-linejoin="round"
            stroke-width="2"
            d="M153 203.5c-6 0-10.8 4.8-10.8 10.9 0 6 4.9 10.9 10.7 10.9 6 0 10.8-4.8 10.8-11 0-6-4.9-10.8-10.8-10.8Z"
            clip-rule="evenodd" />
        <path fill="#000" fill-rule="evenodd" stroke="#000" stroke-linecap="round" stroke-linejoin="round"
            stroke-width="2"
            d="M153.1 208.9c-3 0-5.4 2.4-5.4 5.5 0 3 2.4 5.5 5.4 5.5 3 0 5.5-2.5 5.5-5.5s-2.5-5.5-5.5-5.5Z"
            clip-rule="evenodd" />
        <path fill="#fff" fill-rule="evenodd" stroke="#fff" stroke-linecap="round" stroke-linejoin="round"
            stroke-width="2" d="M157.2 208.1a2 2 0 1 0 0 4.2 2 2 0 0 0 0-4.2Z" clip-rule="evenodd" />
        <path fill="#fff" fill-rule="evenodd" stroke="#000" stroke-linecap="round" stroke-linejoin="round"
            stroke-width="2"
            d="M100.3 203c-5.8 0-10.7 4.9-10.7 11 0 6 4.9 10.9 10.7 10.9 6 0 10.8-4.8 10.8-11 0-6-4.9-10.9-10.8-10.9Z"
            clip-rule="evenodd" />
        <path fill="#000" fill-rule="evenodd" stroke="#000" stroke-linecap="round" stroke-linejoin="round"
            stroke-width="2"
            d="M100.5 208.5c-3 0-5.4 2.4-5.4 5.5 0 3 2.5 5.5 5.4 5.5 3 0 5.5-2.5 5.5-5.5s-2.5-5.5-5.5-5.5Z"
            clip-rule="evenodd" />
        <path fill="#fff" fill-rule="evenodd" stroke="#fff" stroke-linecap="round" stroke-linejoin="round"
            stroke-width="2" d="M104.6 207.7a2 2 0 1 0 0 4.1 2 2 0 0 0 0-4.1Z" clip-rule="evenodd" />
    </g>
    <defs>
        <clipPath id="a">
            <path fill="#fff" d="M0 0h656v669H0z" />
        </clipPath>
    </defs>
</svg>