<svg width="20" height="20" viewBox="0 0 20 20" fill="none" xmlns="http://www.w3.org/2000/svg">
<path d="M9.16675 15H10.8334V13.3333H9.16675V15ZM10.0001 1.66667C8.90573 1.66667 7.8221 1.88222 6.81105 2.30101C5.80001 2.7198 4.88135 3.33363 4.10752 4.10745C2.54472 5.67025 1.66675 7.78987 1.66675 10C1.66675 12.2101 2.54472 14.3298 4.10752 15.8926C4.88135 16.6664 5.80001 17.2802 6.81105 17.699C7.8221 18.1178 8.90573 18.3333 10.0001 18.3333C12.2102 18.3333 14.3298 17.4554 15.8926 15.8926C17.4554 14.3298 18.3334 12.2101 18.3334 10C18.3334 8.90566 18.1179 7.82202 17.6991 6.81098C17.2803 5.79993 16.6665 4.88127 15.8926 4.10745C15.1188 3.33363 14.2002 2.7198 13.1891 2.30101C12.1781 1.88222 11.0944 1.66667 10.0001 1.66667ZM10.0001 16.6667C6.32508 16.6667 3.33341 13.675 3.33341 10C3.33341 6.32501 6.32508 3.33334 10.0001 3.33334C13.6751 3.33334 16.6667 6.32501 16.6667 10C16.6667 13.675 13.6751 16.6667 10.0001 16.6667ZM10.0001 5.00001C9.11603 5.00001 8.26818 5.35119 7.64306 5.97632C7.01794 6.60144 6.66675 7.44928 6.66675 8.33334H8.33341C8.33341 7.89131 8.50901 7.46739 8.82157 7.15483C9.13413 6.84227 9.55805 6.66667 10.0001 6.66667C10.4421 6.66667 10.866 6.84227 11.1786 7.15483C11.4912 7.46739 11.6667 7.89131 11.6667 8.33334C11.6667 10 9.16675 9.79167 9.16675 12.5H10.8334C10.8334 10.625 13.3334 10.4167 13.3334 8.33334C13.3334 7.44928 12.9822 6.60144 12.3571 5.97632C11.732 5.35119 10.8841 5.00001 10.0001 5.00001Z" fill="#AEAEAE"/>
</svg>
