<svg width="8" height="9" viewBox="0 0 8 9" fill="none" xmlns="http://www.w3.org/2000/svg">
<path d="M6.51875 2.79332C6.51875 2.36719 6.38333 2.02202 6.1125 1.75781C5.84167 1.49361 5.48542 1.36151 5.04375 1.36151H3.04375V4.22514H5.04375C5.48542 4.22514 5.84167 4.09304 6.1125 3.82884C6.38333 3.56463 6.51875 3.21946 6.51875 2.79332ZM8 2.79332C8 3.61577 7.73646 4.28693 7.20938 4.80682C6.68229 5.3267 6.00208 5.58665 5.16875 5.58665H3.04375V6.34091H6.2C6.25833 6.34091 6.30625 6.36009 6.34375 6.39844C6.38125 6.43679 6.4 6.4858 6.4 6.54545V7.36364C6.4 7.4233 6.38125 7.4723 6.34375 7.51065C6.30625 7.54901 6.25833 7.56818 6.2 7.56818H3.04375V8.79545C3.04375 8.85511 3.02396 8.90412 2.98438 8.94247C2.94479 8.98082 2.89792 9 2.84375 9H1.8C1.74167 9 1.69375 8.98082 1.65625 8.94247C1.61875 8.90412 1.6 8.85511 1.6 8.79545V7.56818H0.2C0.141667 7.56818 0.09375 7.54901 0.05625 7.51065C0.01875 7.4723 0 7.4233 0 7.36364V6.54545C0 6.4858 0.01875 6.43679 0.05625 6.39844C0.09375 6.36009 0.141667 6.34091 0.2 6.34091H1.6V5.58665H0.2C0.141667 5.58665 0.09375 5.56747 0.05625 5.52912C0.01875 5.49077 0 5.44176 0 5.3821V4.42969C0 4.37429 0.01875 4.32635 0.05625 4.28587C0.09375 4.24538 0.141667 4.22514 0.2 4.22514H1.6V0.204545C1.6 0.144886 1.61875 0.0958807 1.65625 0.0575284C1.69375 0.0191761 1.74167 0 1.8 0H5.16875C6.00208 0 6.68229 0.259943 7.20938 0.77983C7.73646 1.29972 8 1.97088 8 2.79332Z" fill="black"/>
</svg>
