<svg width="282" height="51" viewBox="0 0 282 51" fill="none" xmlns="http://www.w3.org/2000/svg">
<g clip-path="url(#clip0_526_42)">
<path d="M74.3867 4.57812V0H22.3271V4.57812H0L2.37505 9.70862V18.0236H5.96188V35.2902L12.4616 39.7185V18.0249H19.9385V44.8116L26.4383 49.2399V18.0249H33.9125V51.0013L40.4122 48.9671V18.0249H56.2989V43.9997L62.7986 41.9655V18.0249H70.2729V39.6262L76.7726 37.5946V18.0249H84.2495V35.2554L90.7492 33.2212V18.0249H94.3361V9.70995L96.7111 4.57946H74.384L74.3867 4.57812ZM89.1668 12.8931H7.54705V9.70862H89.1668V12.8931Z" fill="white"/>
<path d="M125.081 9.11877C124.474 9.11877 123.966 8.91146 123.559 8.49819C123.152 8.08358 122.948 7.574 122.948 6.96813C122.948 6.36227 123.152 5.85671 123.559 5.44076C123.966 5.02481 124.484 4.81616 125.11 4.81616C125.474 4.81616 125.782 4.871 126.036 4.98201C126.29 5.09302 126.528 5.25351 126.752 5.46349L126.279 6.00383C125.903 5.65876 125.512 5.48623 125.105 5.48623C124.698 5.48623 124.374 5.62934 124.114 5.91422C123.853 6.1991 123.722 6.54951 123.722 6.96546C123.722 7.38141 123.854 7.72781 124.118 8.01403C124.381 8.30158 124.711 8.44469 125.106 8.44469C125.346 8.44469 125.558 8.39922 125.741 8.31094C125.924 8.22267 126.115 8.08625 126.31 7.90436L126.783 8.38049C126.547 8.62658 126.298 8.80982 126.035 8.93286C125.772 9.05591 125.454 9.11743 125.082 9.11743L125.081 9.11877Z" fill="white"/>
<path d="M127.549 9.04671L129.394 4.85645H130.078L131.923 9.04671H131.144L130.719 8.04227H128.736L128.305 9.04671H127.55H127.549ZM129.005 7.39494H130.448L129.723 5.73114L129.005 7.39494Z" fill="white"/>
<path d="M132.994 9.04658V4.88574H133.731V6.61508H135.732V4.88574H136.468V9.04658H135.732V7.29317H133.731V9.04658H132.994Z" fill="white"/>
<path d="M137.899 9.04658V4.88574H138.637V6.97753L140.632 4.88574H141.536L139.793 6.67526L141.614 9.04658H140.722L139.29 7.17414L138.638 7.84019V9.04658H137.901H137.899Z" fill="white"/>
<path d="M143.627 9.04658V5.56383H142.298V4.88574H145.7V5.56383H144.371V9.04658H143.628H143.627Z" fill="white"/>
<path d="M146.627 7.57934V6.87183H148.401V7.57934H146.627Z" fill="white"/>
<path d="M149.628 9.04658V4.88574H153.049V9.04658H152.312V5.54645H150.365V9.04658H149.628Z" fill="white"/>
<path d="M154.48 9.04658V4.88574H157.588V5.53976H155.216V6.62176H157.319V7.27578H155.216V8.3939H157.618V9.04792H154.479L154.48 9.04658Z" fill="white"/>
<path d="M159.877 9.04658V5.56383H158.548V4.88574H161.95V5.56383H160.621V9.04658H159.878H159.877Z" fill="white"/>
<path d="M163.081 9.04658V4.88574H166.19V5.53976H163.817V6.62176H165.92V7.27578H163.817V8.3939H166.219V9.04792H163.08L163.081 9.04658Z" fill="white"/>
<path d="M167.448 9.04658V4.88574H169.102C169.589 4.88574 169.977 5.0128 170.264 5.26692C170.551 5.5197 170.695 5.86075 170.695 6.28874C170.695 6.71672 170.536 7.08453 170.22 7.33463C169.901 7.58474 169.501 7.70912 169.019 7.70912H168.186V9.04658H167.45H167.448ZM168.184 7.04975H169.041C169.316 7.04975 169.536 6.9802 169.701 6.84111C169.864 6.70201 169.946 6.52012 169.946 6.29409C169.946 6.05602 169.865 5.87279 169.703 5.74439C169.542 5.616 169.321 5.5518 169.041 5.5518H168.184V7.04975Z" fill="white"/>
<path d="M171.804 9.04658V4.88574H174.931V5.54511H172.534V6.50139H173.703C174.169 6.50139 174.54 6.6124 174.814 6.83442C175.087 7.05644 175.223 7.36539 175.223 7.76128C175.223 8.15717 175.086 8.4902 174.811 8.71221C174.535 8.93423 174.153 9.04524 173.667 9.04524H171.804V9.04658ZM172.534 8.39256H173.505C173.84 8.39256 174.087 8.34441 174.248 8.24678C174.408 8.15048 174.487 7.97929 174.487 7.73319C174.487 7.32527 174.204 7.12064 173.637 7.12064H172.534V8.39256Z" fill="white"/>
<path d="M177.135 9.11211C176.848 9.11211 176.575 9.04257 176.314 8.90347L176.596 8.35645C176.752 8.44338 176.924 8.48752 177.111 8.48752C177.363 8.48752 177.583 8.33639 177.77 8.03546L176.021 4.88574H176.847L178.153 7.30521L179.303 4.88574H180.099L178.464 8.13711C178.141 8.78711 177.697 9.11211 177.135 9.11211Z" fill="white"/>
<path d="M181.147 9.04658V4.88574H182.801C183.288 4.88574 183.676 5.0128 183.963 5.26692C184.25 5.5197 184.395 5.86075 184.395 6.28874C184.395 6.71672 184.236 7.08453 183.919 7.33463C183.602 7.58474 183.202 7.70912 182.718 7.70912H181.885V9.04658H181.147ZM181.885 7.04975H182.742C183.017 7.04975 183.237 6.9802 183.401 6.84111C183.564 6.70201 183.647 6.52012 183.647 6.29409C183.647 6.05602 183.566 5.87279 183.404 5.74439C183.242 5.616 183.021 5.5518 182.742 5.5518H181.885V7.04975Z" fill="white"/>
<path d="M185.503 9.04658V4.88574H188.324V5.54511H186.234V9.04524H185.503V9.04658Z" fill="white"/>
<path d="M191.361 9.11877C190.754 9.11877 190.246 8.91146 189.839 8.49819C189.432 8.08358 189.229 7.574 189.229 6.96813C189.229 6.36227 189.432 5.85671 189.839 5.44076C190.246 5.02481 190.764 4.81616 191.391 4.81616C191.753 4.81616 192.062 4.871 192.317 4.98201C192.57 5.09302 192.809 5.25351 193.032 5.46349L192.559 6.00383C192.183 5.65876 191.792 5.48623 191.385 5.48623C190.978 5.48623 190.655 5.62934 190.393 5.91422C190.132 6.1991 190.001 6.54951 190.001 6.96546C190.001 7.38141 190.133 7.72781 190.396 8.01403C190.659 8.30158 190.989 8.44469 191.384 8.44469C191.624 8.44469 191.835 8.39922 192.019 8.31094C192.202 8.22267 192.392 8.08625 192.588 7.90436L193.061 8.38049C192.825 8.62658 192.575 8.80982 192.313 8.93286C192.05 9.05591 191.732 9.11743 191.36 9.11743L191.361 9.11877Z" fill="white"/>
<path d="M194.188 9.04658V4.88574H194.926V6.97753L196.921 4.88574H197.825L196.082 6.67526L197.903 9.04658H197.011L195.58 7.17414L194.927 7.84019V9.04658H194.19H194.188Z" fill="white"/>
<path d="M198.885 9.04658V4.88574H199.61V7.92311L201.731 4.88574H202.419V9.04658H201.694V6.0159L199.579 9.04658H198.884H198.885Z" fill="white"/>
<path d="M203.856 9.04665V4.88581H204.581V7.92318L206.701 4.88581H207.39V9.04665H206.665V6.01596L204.55 9.04665H203.854H203.856ZM206.275 4.33611C206.108 4.48457 205.898 4.55947 205.646 4.55947C205.394 4.55947 205.185 4.48457 205.016 4.33611C204.849 4.18766 204.743 3.98436 204.7 3.72623L205.148 3.64331C205.224 3.91348 205.39 4.04722 205.646 4.04722C205.902 4.04722 206.06 3.91214 206.143 3.64331L206.587 3.72623C206.546 3.98436 206.443 4.18766 206.275 4.33611Z" fill="white"/>
<path d="M210.979 9.04658V4.88574H213.8V5.54511H211.709V9.04524H210.979V9.04658Z" fill="white"/>
<path d="M218.466 8.48894C218.051 8.9089 217.525 9.11889 216.89 9.11889C216.256 9.11889 215.733 8.91024 215.321 8.49429C214.91 8.07834 214.704 7.56877 214.704 6.96691C214.704 6.36506 214.912 5.86485 215.327 5.44488C215.742 5.02492 216.268 4.81494 216.903 4.81494C217.537 4.81494 218.06 5.02358 218.472 5.43953C218.883 5.85548 219.089 6.36506 219.089 6.96691C219.089 7.56877 218.881 8.06898 218.466 8.48894ZM215.881 8.01682C216.15 8.30437 216.491 8.44748 216.903 8.44748C217.314 8.44748 217.652 8.30437 217.918 8.01949C218.183 7.73462 218.315 7.38286 218.315 6.96691C218.315 6.55096 218.18 6.20456 217.911 5.91835C217.641 5.63079 217.3 5.48768 216.889 5.48768C216.478 5.48768 216.14 5.63079 215.874 5.91567C215.609 6.20055 215.476 6.55096 215.476 6.96691C215.476 7.38286 215.611 7.72927 215.881 8.01548V8.01682Z" fill="white"/>
<path d="M222.283 9.11877C221.676 9.11877 221.168 8.91146 220.761 8.49819C220.354 8.08358 220.15 7.574 220.15 6.96813C220.15 6.36227 220.354 5.85671 220.761 5.44076C221.168 5.02481 221.686 4.81616 222.312 4.81616C222.675 4.81616 222.984 4.871 223.238 4.98201C223.492 5.09302 223.73 5.25351 223.954 5.46349L223.481 6.00383C223.105 5.65876 222.714 5.48623 222.307 5.48623C221.9 5.48623 221.577 5.62934 221.315 5.91422C221.054 6.1991 220.923 6.54951 220.923 6.96546C220.923 7.38141 221.055 7.72781 221.318 8.01403C221.581 8.30158 221.911 8.44469 222.306 8.44469C222.546 8.44469 222.757 8.39922 222.941 8.31094C223.124 8.22267 223.314 8.08625 223.509 7.90436L223.983 8.38049C223.747 8.62658 223.497 8.80982 223.234 8.93286C222.972 9.05591 222.654 9.11743 222.281 9.11743L222.283 9.11877Z" fill="white"/>
<path d="M225.834 9.11211C225.547 9.11211 225.274 9.04257 225.014 8.90347L225.295 8.35645C225.452 8.44338 225.623 8.48752 225.81 8.48752C226.062 8.48752 226.282 8.33639 226.469 8.03546L224.72 4.88574H225.546L226.852 7.30521L228.002 4.88574H228.799L227.164 8.13711C226.84 8.78711 226.397 9.11211 225.834 9.11211Z" fill="white"/>
<path d="M229.368 9.93879V8.39402H229.775C230.131 7.69721 230.309 6.72354 230.309 5.47569V4.88721H233.233V8.39402H233.754L233.652 9.93879H233.041V9.04671H230.088L230.017 9.93879H229.37H229.368ZM230.56 8.39402H232.495V5.54657H231.015V6.02271C231.015 6.99371 230.863 7.78414 230.56 8.39402Z" fill="white"/>
<path d="M234.405 9.04671L236.251 4.85645H236.934L238.779 9.04671H238L237.574 8.04227H235.591L235.16 9.04671H234.405ZM235.861 7.39494H237.305L236.579 5.73114L235.861 7.39494Z" fill="white"/>
<path d="M239.852 9.04658V4.88574H241.505C241.992 4.88574 242.38 5.0128 242.667 5.26692C242.954 5.5197 243.099 5.86075 243.099 6.28874C243.099 6.71672 242.94 7.08453 242.623 7.33463C242.306 7.58474 241.906 7.70912 241.422 7.70912H240.589V9.04658H239.852ZM240.589 7.04975H241.446C241.721 7.04975 241.941 6.9802 242.105 6.84111C242.268 6.70201 242.351 6.52012 242.351 6.29409C242.351 6.05602 242.27 5.87279 242.108 5.74439C241.946 5.616 241.725 5.5518 241.446 5.5518H240.589V7.04975Z" fill="white"/>
<path d="M246.153 9.11877C245.546 9.11877 245.038 8.91146 244.631 8.49819C244.224 8.08358 244.021 7.574 244.021 6.96813C244.021 6.36227 244.224 5.85671 244.631 5.44076C245.038 5.02481 245.556 4.81616 246.183 4.81616C246.545 4.81616 246.854 4.871 247.109 4.98201C247.362 5.09302 247.601 5.25351 247.824 5.46349L247.351 6.00383C246.975 5.65876 246.584 5.48623 246.177 5.48623C245.77 5.48623 245.447 5.62934 245.185 5.91422C244.924 6.1991 244.793 6.54951 244.793 6.96546C244.793 7.38141 244.925 7.72781 245.188 8.01403C245.451 8.30158 245.781 8.44469 246.176 8.44469C246.416 8.44469 246.627 8.39922 246.811 8.31094C246.994 8.22267 247.184 8.08625 247.38 7.90436L247.853 8.38049C247.617 8.62658 247.367 8.80982 247.105 8.93286C246.842 9.05591 246.524 9.11743 246.152 9.11743L246.153 9.11877Z" fill="white"/>
<path d="M250.009 9.04658V5.56383H248.68V4.88574H252.082V5.56383H250.751V9.04658H250.009Z" fill="white"/>
<path d="M253.215 9.04658V4.88574H255.095C255.578 4.88574 255.943 5.00879 256.191 5.25488C256.378 5.44079 256.473 5.67484 256.473 5.95571C256.473 6.36765 256.273 6.6766 255.874 6.88257C256.43 7.06848 256.707 7.40953 256.707 7.90439C256.707 8.26818 256.567 8.55038 256.288 8.74833C256.009 8.94627 255.632 9.04524 255.156 9.04524H253.215V9.04658ZM253.94 6.63915H254.947C255.191 6.63915 255.384 6.591 255.525 6.49337C255.667 6.39573 255.738 6.25263 255.738 6.06271C255.738 5.89686 255.675 5.76713 255.547 5.67351C255.419 5.57988 255.237 5.53441 255.002 5.53441H253.941V6.64049L253.94 6.63915ZM253.94 8.39791H255.163C255.419 8.39791 255.617 8.34842 255.758 8.24945C255.9 8.15048 255.971 8.00604 255.971 7.81478C255.971 7.44163 255.684 7.25572 255.109 7.25572H253.94V8.39657V8.39791Z" fill="white"/>
<path d="M257.893 9.04658V4.88574H261.001V5.53976H258.629V6.62176H260.732V7.27578H258.629V8.3939H261.031V9.04792H257.892L257.893 9.04658Z" fill="white"/>
<path d="M262.259 9.04658V4.88574H262.996V6.61508H264.996V4.88574H265.734V9.04658H264.996V7.29317H262.996V9.04658H262.259Z" fill="white"/>
<path d="M267.166 9.04658V4.88574H267.903V6.61508H269.904V4.88574H270.641V9.04658H269.904V7.29317H267.903V9.04658H267.166Z" fill="white"/>
<path d="M272.07 9.04658V4.88574H272.801V6.3837H273.765C274.245 6.3837 274.626 6.49738 274.912 6.72609C275.198 6.95345 275.34 7.27311 275.34 7.68638C275.34 8.09966 275.199 8.43803 274.916 8.68145C274.633 8.92487 274.247 9.04658 273.759 9.04658H272.07ZM272.801 8.39256H273.747C274.022 8.39256 274.235 8.33238 274.385 8.21067C274.534 8.08896 274.61 7.91241 274.61 7.67836C274.61 7.46436 274.534 7.30119 274.382 7.18751C274.23 7.07516 274.014 7.01765 273.735 7.01765H272.801V8.39122V8.39256ZM275.838 9.04658V4.88574H276.568V9.04658H275.838Z" fill="white"/>
<path d="M278.001 9.04665V4.88581H278.727V7.92318L280.847 4.88581H281.536V9.04665H280.81V6.01596L278.696 9.04665H278H278.001ZM280.421 4.33611C280.254 4.48457 280.043 4.55947 279.791 4.55947C279.539 4.55947 279.33 4.48457 279.162 4.33611C278.995 4.18766 278.888 3.98436 278.845 3.72623L279.294 3.64331C279.37 3.91348 279.535 4.04722 279.791 4.04722C280.048 4.04722 280.205 3.91214 280.289 3.64331L280.732 3.72623C280.692 3.98436 280.588 4.18766 280.421 4.33611Z" fill="white"/>
<path d="M125.578 24.6026C124.831 24.6026 124.12 24.4234 123.446 24.0623L124.177 22.6419C124.582 22.8679 125.028 22.9816 125.516 22.9816C126.17 22.9816 126.74 22.5911 127.228 21.8073L122.683 13.6194H124.831L128.225 19.9068L131.215 13.6194H133.285L129.035 22.0695C128.194 23.7587 127.042 24.6026 125.579 24.6026H125.578Z" fill="white"/>
<path d="M138.983 24.4327V13.6194H140.899V18.1146H146.099V13.6194H148.015V24.4327H146.099V19.876H140.899V24.4327H138.983Z" fill="white"/>
<path d="M154.708 24.4327V13.6194H156.592V21.5131L162.104 13.6194H163.894V24.4327H162.011V16.5551L156.516 24.4327H154.709H154.708Z" fill="white"/>
<path d="M170.604 24.4327V13.6194H175.493C176.75 13.6194 177.699 13.939 178.343 14.577C178.831 15.0612 179.075 15.6684 179.075 16.4C179.075 17.4713 178.556 18.2751 177.518 18.8101C178.96 19.2942 179.683 20.1796 179.683 21.4676C179.683 22.4159 179.319 23.1461 178.592 23.661C177.866 24.176 176.884 24.4327 175.65 24.4327H170.606H170.604ZM172.489 18.1761H175.104C175.737 18.1761 176.237 18.0504 176.607 17.7976C176.975 17.5448 177.159 17.1717 177.159 16.6782C177.159 16.2462 176.994 15.9078 176.662 15.667C176.33 15.425 175.857 15.3032 175.245 15.3032H172.489V18.1761ZM172.489 22.7489H175.665C176.329 22.7489 176.845 22.6205 177.213 22.3624C177.581 22.1042 177.766 21.7284 177.766 21.2349C177.766 20.2666 177.019 19.7824 175.524 19.7824H172.489V22.7489Z" fill="white"/>
<path d="M185.736 24.4327V13.6194H193.817V15.3193H187.652V18.1306H193.116V19.8292H187.652V22.7342H193.895V24.4327H185.738H185.736Z" fill="white"/>
<path d="M200.061 24.4327V13.6194H204.358C205.623 13.6194 206.63 13.9497 207.378 14.6078C208.125 15.2671 208.5 16.1525 208.5 17.2653C208.5 18.3781 208.087 19.3357 207.263 19.9844C206.438 20.633 205.397 20.958 204.141 20.958H201.977V24.4341H200.062L200.061 24.4327ZM201.976 19.2421H204.203C204.918 19.2421 205.49 19.0615 205.916 18.7017C206.342 18.342 206.555 17.8672 206.555 17.2813C206.555 16.6634 206.345 16.1873 205.924 15.8516C205.503 15.5172 204.929 15.3501 204.204 15.3501H201.977V19.2434L201.976 19.2421Z" fill="white"/>
<path d="M219.413 24.6187C217.834 24.6187 216.517 24.081 215.458 23.0043C214.4 21.9277 213.87 20.6023 213.87 19.0267C213.87 17.4512 214.4 16.1378 215.458 15.0572C216.517 13.9751 217.861 13.4348 219.491 13.4348C220.435 13.4348 221.237 13.5793 221.897 13.8668C222.556 14.1544 223.176 14.5717 223.757 15.1173L222.528 16.523C221.552 15.6269 220.534 15.1789 219.476 15.1789C218.418 15.1789 217.58 15.5493 216.899 16.2916C216.22 17.0339 215.88 17.9447 215.88 19.0254C215.88 20.1061 216.222 21.0048 216.907 21.7525C217.592 22.5001 218.448 22.8719 219.476 22.8719C220.099 22.8719 220.649 22.7556 221.126 22.5242C221.603 22.2928 222.097 21.9397 222.605 21.4663L223.834 22.7021C223.221 23.3414 222.572 23.8202 221.888 24.1385C221.203 24.4582 220.378 24.6173 219.413 24.6173V24.6187Z" fill="white"/>
<path d="M229.733 24.4327V13.6194H231.618V21.5131L237.129 13.6194H238.92V24.4327H237.035V16.5551L231.54 24.4327H229.733Z" fill="white"/>
<path d="M248.309 24.4327V15.3808H244.853V13.6194H253.696V15.3808H250.24V24.4341H248.31L248.309 24.4327Z" fill="white"/>
<path d="M259.61 24.4327V13.6194H267.691V15.3193H261.526V18.1306H266.99V19.8292H261.526V22.7342H267.769V24.4327H259.612H259.61Z" fill="white"/>
<path d="M276.612 24.4327V15.3808H273.156V13.6194H282V15.3808H278.544V24.4341H276.614L276.612 24.4327Z" fill="white"/>
<path d="M123.539 34.6912V29.2209H126.013C126.648 29.2209 127.129 29.3828 127.454 29.7051C127.7 29.9499 127.824 30.2575 127.824 30.628C127.824 31.1696 127.562 31.5762 127.036 31.8464C127.767 32.0911 128.13 32.5392 128.13 33.1905C128.13 33.6693 127.946 34.0398 127.579 34.3006C127.211 34.5614 126.715 34.6912 126.09 34.6912H123.538H123.539ZM124.492 31.5267H125.816C126.137 31.5267 126.389 31.4625 126.576 31.3355C126.762 31.2084 126.855 31.0198 126.855 30.7684C126.855 30.5504 126.772 30.3792 126.603 30.2561C126.435 30.1344 126.196 30.0729 125.886 30.0729H124.492V31.5267ZM124.492 33.8392H126.099C126.435 33.8392 126.696 33.7737 126.884 33.6439C127.07 33.5142 127.163 33.3229 127.163 33.0728C127.163 32.5833 126.784 32.3386 126.028 32.3386H124.491V33.8392H124.492Z" fill="white"/>
<path d="M131.116 34.6912V29.2209H135.204V30.0809H132.085V31.504H134.85V32.364H132.085V33.8325H135.244V34.6925H131.116V34.6912Z" fill="white"/>
<path d="M139.638 34.6912V30.1117H137.89V29.2209H142.363V30.1117H140.615V34.6912H139.638Z" fill="white"/>
<path d="M145.278 34.6912V29.2209H149.367V30.0809H146.247V31.504H149.012V32.364H146.247V33.8325H149.406V34.6925H145.278V34.6912Z" fill="white"/>
<path d="M152.447 34.6912V29.2209H154.621C155.261 29.2209 155.771 29.3881 156.148 29.7212C156.527 30.0542 156.716 30.5022 156.716 31.0653C156.716 31.6284 156.507 32.1125 156.089 32.4415C155.671 32.7706 155.145 32.9337 154.509 32.9337H153.414V34.6925H152.445L152.447 34.6912ZM153.416 32.0657H154.543C154.905 32.0657 155.194 31.9748 155.409 31.7929C155.625 31.611 155.733 31.3702 155.733 31.0733C155.733 30.7604 155.626 30.5196 155.413 30.3511C155.2 30.1812 154.911 30.097 154.543 30.097H153.416V32.0671V32.0657Z" fill="white"/>
<path d="M159.597 34.6912V29.2209H160.55V33.2146L163.339 29.2209H164.244V34.6912H163.291V30.7055L160.511 34.6912H159.597Z" fill="white"/>
<path d="M167.561 34.6912V29.2209H168.53V31.496H171.161V29.2209H172.13V34.6912H171.161V32.3854H168.53V34.6912H167.561Z" fill="white"/>
<path d="M174.965 34.6911L177.391 29.1821H178.289L180.715 34.6911H179.691L179.131 33.3697H176.524L175.957 34.6911H174.965ZM176.879 32.5178H178.777L177.824 30.3297L176.879 32.5178Z" fill="white"/>
<path d="M183.55 34.6912V29.2209H185.724C186.364 29.2209 186.874 29.3881 187.253 29.7212C187.631 30.0542 187.82 30.5022 187.82 31.0653C187.82 31.6284 187.611 32.1125 187.193 32.4415C186.775 32.7692 186.25 32.9337 185.613 32.9337H184.519V34.6925H183.55V34.6912ZM184.519 32.0657H185.644C186.007 32.0657 186.296 31.9748 186.511 31.7929C186.727 31.611 186.833 31.3702 186.833 31.0733C186.833 30.7604 186.727 30.5196 186.514 30.3511C186.301 30.1812 186.011 30.097 185.643 30.097H184.518V32.0671L184.519 32.0657Z" fill="white"/>
<path d="M190.702 34.6912V29.2209H191.671V31.496H194.302V29.2209H195.272V34.6912H194.302V32.3854H191.671V34.6912H190.702Z" fill="white"/>
<path d="M203.281 33.9568C202.735 34.5091 202.045 34.786 201.209 34.786C200.373 34.786 199.686 34.5118 199.145 33.9661C198.605 33.4191 198.334 32.749 198.334 31.9573C198.334 31.1655 198.608 30.5088 199.154 29.9564C199.699 29.4041 200.39 29.1272 201.225 29.1272C202.061 29.1272 202.748 29.4 203.289 29.9471C203.829 30.4941 204.1 31.1641 204.1 31.9559C204.1 32.7477 203.827 33.4044 203.281 33.9568ZM199.881 33.3362C200.236 33.7133 200.683 33.9019 201.224 33.9019C201.764 33.9019 202.209 33.7147 202.558 33.3402C202.907 32.9644 203.083 32.5043 203.083 31.9573C203.083 31.4102 202.906 30.9555 202.552 30.5783C202.197 30.2012 201.75 30.0113 201.209 30.0113C200.669 30.0113 200.224 30.1985 199.873 30.5743C199.524 30.9488 199.349 31.4102 199.349 31.9573C199.349 32.5043 199.527 32.959 199.88 33.3362H199.881Z" fill="white"/>
<path d="M207.164 34.691V29.2208H208.117V33.2145L210.906 29.2208H211.812V34.691H210.859V30.7054L208.078 34.691H207.164ZM210.347 28.4972C210.125 28.6925 209.85 28.7901 209.52 28.7901C209.19 28.7901 208.914 28.6925 208.693 28.4972C208.472 28.302 208.333 28.0345 208.275 27.6961L208.865 27.5864C208.965 27.9409 209.183 28.1174 209.519 28.1174C209.855 28.1174 210.062 27.9409 210.173 27.5864L210.755 27.6961C210.702 28.0345 210.566 28.302 210.345 28.4972H210.347Z" fill="white"/>
<path d="M219.379 34.6912V29.2209H220.411L222.09 31.8076L223.768 29.2209H224.8V34.6912H223.831V30.7684L222.091 33.347H222.06L220.335 30.7831V34.6912H219.382H219.379Z" fill="white"/>
<path d="M228.106 34.6912V29.2209H232.195V30.0809H229.076V31.504H231.84V32.364H229.076V33.8325H232.234V34.6925H228.106V34.6912Z" fill="white"/>
<path d="M234.645 35.8628V33.8312H235.18C235.647 32.915 235.881 31.6351 235.881 29.994V29.2209H239.725V33.8325H240.41L240.276 35.8641H239.473V34.6912H235.589L235.495 35.8641H234.645V35.8628ZM236.212 33.8312H238.756V30.0876H236.811V30.7136C236.811 31.9895 236.611 33.03 236.212 33.8312Z" fill="white"/>
<path d="M243.166 34.6912V29.2209H244.119V33.2146L246.908 29.2209H247.814V34.6912H246.861V30.7055L244.08 34.6912H243.166Z" fill="white"/>
<path d="M255.39 35.8626V34.6897H251.129V29.2195H252.098V33.823H254.681V29.2195H255.642V33.823H256.327L256.193 35.8626H255.39Z" fill="white"/>
<path d="M259.085 34.6912V29.2209H260.038V33.2146L262.827 29.2209H263.733V34.6912H262.78V30.7055L259.999 34.6912H259.085Z" fill="white"/>
<path d="M267.047 34.6912V29.2209H268.016V31.496H270.647V29.2209H271.616V34.6912H270.647V32.3854H268.016V34.6912H267.047Z" fill="white"/>
<path d="M274.924 34.6912V29.2209H275.885V31.191H277.153C277.784 31.191 278.286 31.3408 278.662 31.6404C279.036 31.94 279.225 32.3613 279.225 32.903C279.225 33.4446 279.039 33.8914 278.666 34.2123C278.292 34.532 277.787 34.6925 277.145 34.6925H274.924V34.6912ZM275.885 33.8312H277.129C277.492 33.8312 277.771 33.7523 277.967 33.5931C278.164 33.4339 278.263 33.2012 278.263 32.8936C278.263 32.6127 278.163 32.3974 277.963 32.249C277.764 32.1005 277.48 32.0256 277.113 32.0256H275.884V33.8312H275.885ZM279.879 34.6912V29.2209H280.84V34.6912H279.879Z" fill="white"/>
<path d="M113.512 4.4082H112.281V35.8626H113.512V4.4082Z" fill="white"/>
</g>
<defs>
<clipPath id="clip0_526_42">
<rect width="282" height="51" fill="white"/>
</clipPath>
</defs>
</svg>
