<svg width="24" height="24" viewBox="0 0 24 24" fill="none" xmlns="http://www.w3.org/2000/svg">
<g clip-path="url(#clip0_378_33)">
<path d="M2.83301 19.5V4.50001C2.83301 4.05798 3.0086 3.63406 3.32116 3.3215C3.63372 3.00894 4.05765 2.83334 4.49967 2.83334H19.4997C19.9417 2.83334 20.3656 3.00894 20.6782 3.3215C20.9907 3.63406 21.1663 4.05798 21.1663 4.50001V19.5C21.1663 19.942 20.9907 20.366 20.6782 20.6785C20.3656 20.9911 19.9417 21.1667 19.4997 21.1667H4.49967C4.05765 21.1667 3.63372 20.9911 3.32116 20.6785C3.0086 20.366 2.83301 19.942 2.83301 19.5Z" stroke="black" stroke-width="1.5"/>
<path d="M14.4993 7.83335H17.8327M14.4993 14.9167H17.8327M14.4993 17.4167H17.8327M6.16602 7.83335H7.83268M7.83268 7.83335H9.49935M7.83268 7.83335V6.16669M7.83268 7.83335V9.50002M6.65435 17.345L7.83268 16.1667M7.83268 16.1667L9.01185 14.9884M7.83268 16.1667L6.65435 14.9884M7.83268 16.1667L9.01185 17.345" stroke="black" stroke-width="1.5" stroke-linecap="round" stroke-linejoin="round"/>
</g>
<defs>
<clipPath id="clip0_378_33">
<rect width="20" height="20" fill="white" transform="translate(2 2)"/>
</clipPath>
</defs>
</svg>
