<svg width="50" height="50" viewBox="0 0 50 50" fill="none" xmlns="http://www.w3.org/2000/svg">
<g clip-path="url(#clip0_317_32)">
<path d="M24.3413 32.675C25.0418 30.3914 25.4756 28.0344 25.634 25.651C25.634 25.651 26.007 20.076 26.0445 19.7948L28.5945 22.3448C28.183 22.4167 27.7768 22.4646 27.3549 22.5156L27.1424 25.4906C29.042 25.2909 30.9222 24.9366 32.7643 24.4312C35.2855 23.7802 37.6175 22.5432 39.5705 20.8208C40.1226 20.3167 40.659 19.7469 41.209 19.1781C41.3359 19.0424 41.4347 18.883 41.4998 18.7091C41.5649 18.5351 41.595 18.3501 41.5884 18.1645C41.5818 17.9788 41.5387 17.7964 41.4614 17.6275C41.3842 17.4586 41.2743 17.3066 41.1382 17.1802C40.9995 17.0423 40.8348 16.9334 40.6535 16.8598C40.4723 16.7862 40.2782 16.7495 40.0827 16.7517C39.8871 16.754 39.6939 16.7951 39.5144 16.8728C39.3349 16.9505 39.1727 17.0631 39.0372 17.2042C38.5465 17.7427 38.0132 18.2156 37.4903 18.7406L30.2049 11.4594L31.7653 9.90103C31.9052 9.76561 32.0165 9.60353 32.0927 9.42436C32.1689 9.24518 32.2084 9.05256 32.2089 8.85786C32.2094 8.66316 32.1708 8.47034 32.0955 8.29079C32.0202 8.11124 31.9097 7.9486 31.7705 7.81249C31.6428 7.67146 31.4877 7.558 31.3146 7.47908C31.1415 7.40016 30.9541 7.35744 30.7639 7.35354C30.5737 7.34964 30.3847 7.38464 30.2085 7.45639C30.0323 7.52815 29.8726 7.63515 29.7393 7.77082L28.3226 9.18541C25.2231 12.1342 23.3407 16.1372 23.0465 20.4052C23.0465 20.4052 22.408 27.9708 22.307 28.5573L19.859 26.1094C19.9674 26.0969 20.5549 26.0427 21.1643 25.9896L21.3778 22.9948L20.3872 23.0646C18.8109 23.181 17.2621 23.54 15.7955 24.1292C13.2988 25 11.0366 26.4351 9.18509 28.3229L7.77051 29.7396C7.63483 29.8729 7.52783 30.0326 7.45608 30.2088C7.38432 30.385 7.34932 30.574 7.35322 30.7642C7.35712 30.9544 7.39984 31.1418 7.47876 31.3149C7.55769 31.488 7.67114 31.6431 7.81217 31.7708C7.94829 31.91 8.11093 32.0206 8.29048 32.0959C8.47003 32.1711 8.66285 32.2097 8.85754 32.2092C9.05224 32.2087 9.24487 32.1692 9.42404 32.093C9.60321 32.0168 9.7653 31.9055 9.90071 31.7656C9.90071 31.7656 11.4111 30.2552 11.4601 30.2062L18.7393 37.4896C18.2143 38.0125 17.7413 38.5458 17.2028 39.0364C17.0618 39.172 16.9491 39.3342 16.8714 39.5137C16.7938 39.6932 16.7526 39.8864 16.7504 40.0819C16.7481 40.2775 16.7849 40.4716 16.8584 40.6528C16.932 40.834 17.0409 40.9988 17.1788 41.1375C17.3052 41.2736 17.4572 41.3834 17.6261 41.4607C17.795 41.5379 17.9775 41.5811 18.1631 41.5877C18.3487 41.5942 18.5338 41.5641 18.7077 41.499C18.8817 41.4339 19.0411 41.3351 19.1768 41.2083C19.7455 40.6583 20.3153 40.1219 20.8195 39.5698C22.516 37.578 23.7218 35.2162 24.3403 32.6739L24.3413 32.675ZM34.8465 20.2635C33.9181 20.7674 32.9487 21.1919 31.9486 21.5323L26.8861 16.4698C27.2704 15.5141 27.7547 14.6017 28.3309 13.7479L34.8465 20.2635ZM22.6497 25.8583L22.6518 25.8604L22.6445 25.9302L22.6497 25.8583ZM13.7476 28.3312C14.6018 27.7553 15.5145 27.2714 16.4705 26.8875L21.532 31.9489C21.1915 32.949 20.7671 33.9184 20.2632 34.8469L13.7476 28.3312Z" fill="black"/>
</g>
<defs>
<clipPath id="clip0_317_32">
<rect width="35.3553" height="35.3553" fill="white" transform="translate(25) rotate(45)"/>
</clipPath>
</defs>
</svg>
