<svg width="24" height="24" viewBox="0 0 24 24" fill="none" xmlns="http://www.w3.org/2000/svg">
<path d="M21 12C21.003 13.7868 20.4715 15.5336 19.474 17.016C18.6514 18.2429 17.5391 19.2483 16.2355 19.9432C14.9319 20.638 13.4772 21.001 12 21C10.5228 21.001 9.06808 20.638 7.76451 19.9432C6.46093 19.2483 5.34865 18.2429 4.526 17.016C3.74273 15.8484 3.2439 14.5135 3.06951 13.1184C2.89511 11.7233 3.05 10.3067 3.52175 8.98227C3.9935 7.6578 4.769 6.46228 5.78607 5.49154C6.80314 4.52081 8.0335 3.80186 9.37851 3.39233C10.7235 2.9828 12.1458 2.89408 13.5312 3.13329C14.9167 3.3725 16.2269 3.93299 17.3567 4.76981C18.4865 5.60663 19.4046 6.69651 20.0373 7.95209C20.67 9.20767 20.9997 10.594 21 12Z" stroke="black" stroke-width="2"/>
<path d="M12.9998 9C12.9998 9.26522 12.8944 9.51957 12.7069 9.70711C12.5193 9.89464 12.265 10 11.9998 10V12C12.7954 12 13.5585 11.6839 14.1211 11.1213C14.6837 10.5587 14.9998 9.79565 14.9998 9H12.9998ZM11.9998 10C11.7345 10 11.4802 9.89464 11.2927 9.70711C11.1051 9.51957 10.9998 9.26522 10.9998 9H8.99976C8.99976 9.79565 9.31583 10.5587 9.87844 11.1213C10.441 11.6839 11.2041 12 11.9998 12V10ZM10.9998 9C10.9998 8.73478 11.1051 8.48043 11.2927 8.29289C11.4802 8.10536 11.7345 8 11.9998 8V6C11.2041 6 10.441 6.31607 9.87844 6.87868C9.31583 7.44129 8.99976 8.20435 8.99976 9H10.9998ZM11.9998 8C12.265 8 12.5193 8.10536 12.7069 8.29289C12.8944 8.48043 12.9998 8.73478 12.9998 9H14.9998C14.9998 8.20435 14.6837 7.44129 14.1211 6.87868C13.5585 6.31607 12.7954 6 11.9998 6V8ZM5.16576 17.856L4.20676 17.571L4.05176 18.094L4.40676 18.507L5.16576 17.856ZM18.8338 17.856L19.5938 18.507L19.9478 18.094L19.7928 17.571L18.8338 17.856ZM8.99976 16H14.9998V14H8.99976V16ZM8.99976 14C7.92289 14 6.87477 14.3475 6.01123 14.9909C5.14769 15.6343 4.51483 16.5391 4.20676 17.571L6.12376 18.141C6.30901 17.5222 6.68891 16.9797 7.20702 16.594C7.72514 16.2083 8.35384 16 8.99976 16V14ZM11.9998 20C10.8452 20.0013 9.7042 19.7521 8.65537 19.2695C7.60654 18.787 6.6749 18.0826 5.92476 17.205L4.40676 18.507C5.34464 19.6035 6.50914 20.4836 7.81999 21.0866C9.13084 21.6897 10.5569 22.0013 11.9998 22V20ZM14.9998 16C16.3568 16 17.5058 16.902 17.8758 18.142L19.7928 17.571C19.4847 16.5393 18.851 15.6345 17.9877 14.9912C17.1243 14.3478 16.0765 14.0002 14.9998 14V16ZM18.0748 17.205C17.3246 18.0826 16.393 18.787 15.3441 19.2695C14.2953 19.7521 13.1543 20.0013 11.9998 20V22C13.4427 22.0013 14.8687 21.6897 16.1795 21.0866C17.4904 20.4836 18.6559 19.6035 19.5938 18.507L18.0748 17.205Z" fill="black"/>
</svg>
