<svg width="637" height="384" viewBox="0 0 637 384" fill="none" xmlns="http://www.w3.org/2000/svg">
<path d="M96 160V352C96 369.7 110.3 384 128 384H160C177.7 384 192 369.7 192 352V263.8C201.9 270.4 212.6 275.8 224 279.9V304C224 312.8 231.2 320 240 320C248.8 320 256 312.8 256 304V287.1C261.3 287.7 266.6 288 272 288C277.4 288 282.7 287.7 288 287.1V304C288 312.8 295.2 320 304 320C312.8 320 320 312.8 320 304V279.8C331.4 275.8 342.1 270.4 352 263.7V352C352 369.7 366.3 384 384 384H416C433.7 384 448 369.7 448 352V192L480 224V273.5C480 283 482.8 292.2 488.1 300.1L530 363C538.8 376.1 553.5 384 569.3 384C591.8 384 611.2 368.1 615.6 346L635.9 244.4C638.5 231.4 635.6 217.9 627.9 207.1L624 201.6V120C624 106.7 613.3 96 600 96C586.7 96 576 106.7 576 120V134.4L523.1 60.3C496 22.5 452.4 0 405.9 0H144C77.7 0 24 53.7 24 120V174C9.4 185.8 0 203.8 0 224V241.6C0 249.6 6.4 256 14.4 256C46.2 256 72 230.2 72 198.4V120C72 95.7 84.1 74.2 102.5 61.1C98.3 71.9 96 83.7 96 96V160ZM592 272C592 280.8 584.8 288 576 288C567.2 288 560 280.8 560 272C560 263.2 567.2 256 576 256C584.8 256 592 263.2 592 272ZM166.6 102.6C162.4 98.4 160 92.6 160 86.6C160 74.1 170.1 64 182.6 64H361.4C373.9 64 384 74.1 384 86.6C384 92.6 381.6 98.4 377.4 102.6L354 126C332.2 147.8 302.7 160 272 160C241.3 160 211.8 147.8 190.1 126.1L166.7 102.7L166.6 102.6Z" fill="black"/>
</svg>
