<svg width="14" height="16" viewBox="0 0 14 16" fill="none" xmlns="http://www.w3.org/2000/svg">
<g clip-path="url(#clip0_17_2)">
<path d="M11.4078 4.96591C11.4078 4.20833 11.1708 3.5947 10.6969 3.125C10.2229 2.6553 9.59948 2.42045 8.82656 2.42045H5.32656V7.51136H8.82656C9.59948 7.51136 10.2229 7.27652 10.6969 6.80682C11.1708 6.33712 11.4078 5.72348 11.4078 4.96591ZM14 4.96591C14 6.42803 13.5388 7.62121 12.6164 8.54545C11.694 9.4697 10.5036 9.93182 9.04531 9.93182H5.32656V11.2727H10.85C10.9521 11.2727 11.0359 11.3068 11.1016 11.375C11.1672 11.4432 11.2 11.5303 11.2 11.6364V13.0909C11.2 13.197 11.1672 13.2841 11.1016 13.3523C11.0359 13.4205 10.9521 13.4545 10.85 13.4545H5.32656V15.6364C5.32656 15.7424 5.29193 15.8295 5.22266 15.8977C5.15339 15.9659 5.07135 16 4.97656 16H3.15C3.04792 16 2.96406 15.9659 2.89844 15.8977C2.83281 15.8295 2.8 15.7424 2.8 15.6364V13.4545H0.35C0.247917 13.4545 0.164062 13.4205 0.0984375 13.3523C0.0328125 13.2841 0 13.197 0 13.0909V11.6364C0 11.5303 0.0328125 11.4432 0.0984375 11.375C0.164062 11.3068 0.247917 11.2727 0.35 11.2727H2.8V9.93182H0.35C0.247917 9.93182 0.164062 9.89773 0.0984375 9.82955C0.0328125 9.76136 0 9.67424 0 9.56818V7.875C0 7.77652 0.0328125 7.69129 0.0984375 7.61932C0.164062 7.54735 0.247917 7.51136 0.35 7.51136H2.8V0.363636C2.8 0.257576 2.83281 0.170455 2.89844 0.102273C2.96406 0.0340909 3.04792 0 3.15 0H9.04531C10.5036 0 11.694 0.462121 12.6164 1.38636C13.5388 2.31061 14 3.50379 14 4.96591Z" fill="black"/>
</g>
<defs>
<clipPath id="clip0_17_2">
<rect width="14" height="16" fill="white"/>
</clipPath>
</defs>
</svg>
