<svg width="983" height="226" viewBox="0 0 983 226" fill="none" xmlns="http://www.w3.org/2000/svg">
<path d="M776 117L766.021 111.19L765.979 122.737L776 117ZM244.453 1.83712C294.355 34.4465 374.821 63.1076 467.836 83.7998C560.874 104.497 666.562 117.242 766.967 117.967L766.982 115.967C666.724 115.243 561.177 102.515 468.27 81.8475C375.34 61.1744 295.151 32.5771 245.547 0.162884L244.453 1.83712Z" fill="#6ADD34"/>
<path d="M79.7071 4.29289C79.3166 3.90237 78.6834 3.90237 78.2929 4.29289L71.9289 10.6569C71.5384 11.0474 71.5384 11.6805 71.9289 12.0711C72.3194 12.4616 72.9526 12.4616 73.3431 12.0711L79 6.41422L84.6568 12.0711C85.0474 12.4616 85.6805 12.4616 86.0711 12.0711C86.4616 11.6805 86.4616 11.0474 86.0711 10.6569L79.7071 4.29289ZM80 180L80 5L78 5L78 180L80 180Z" fill="#C6C6C6"/>
<path d="M79.7071 4.29289C79.3166 3.90237 78.6834 3.90237 78.2929 4.29289L71.9289 10.6569C71.5384 11.0474 71.5384 11.6805 71.9289 12.0711C72.3194 12.4616 72.9526 12.4616 73.3431 12.0711L79 6.41422L84.6568 12.0711C85.0474 12.4616 85.6805 12.4616 86.0711 12.0711C86.4616 11.6805 86.4616 11.0474 86.0711 10.6569L79.7071 4.29289ZM80 180L80 5L78 5L78 180L80 180Z" fill="#C6C6C6"/>
<path d="M79.7071 4.29289C79.3166 3.90237 78.6834 3.90237 78.2929 4.29289L71.9289 10.6569C71.5384 11.0474 71.5384 11.6805 71.9289 12.0711C72.3194 12.4616 72.9526 12.4616 73.3431 12.0711L79 6.41422L84.6568 12.0711C85.0474 12.4616 85.6805 12.4616 86.0711 12.0711C86.4616 11.6805 86.4616 11.0474 86.0711 10.6569L79.7071 4.29289ZM80 180L80 5L78 5L78 180L80 180Z" fill="#C6C6C6"/>
<path d="M79.7071 4.29289C79.3166 3.90237 78.6834 3.90237 78.2929 4.29289L71.9289 10.6569C71.5384 11.0474 71.5384 11.6805 71.9289 12.0711C72.3194 12.4616 72.9526 12.4616 73.3431 12.0711L79 6.41422L84.6568 12.0711C85.0474 12.4616 85.6805 12.4616 86.0711 12.0711C86.4616 11.6805 86.4616 11.0474 86.0711 10.6569L79.7071 4.29289ZM80 180L80 5L78 5L78 180L80 180Z" fill="#C6C6C6"/>
<path d="M1.218 19V9.2H3.472V17.152H7.84V9.2H10.094V19H1.218ZM9.408 21.072V18.468L9.898 19H7.84V17.152H11.494V21.072H9.408ZM16.4215 19.112C15.5628 19.112 14.8068 18.944 14.1535 18.608C13.5095 18.272 13.0101 17.8147 12.6555 17.236C12.3008 16.648 12.1235 15.9807 12.1235 15.234C12.1235 14.478 12.2961 13.8107 12.6415 13.232C12.9961 12.644 13.4768 12.1867 14.0835 11.86C14.6901 11.524 15.3761 11.356 16.1415 11.356C16.8788 11.356 17.5415 11.5147 18.1295 11.832C18.7268 12.14 19.1981 12.588 19.5435 13.176C19.8888 13.7547 20.0615 14.45 20.0615 15.262C20.0615 15.346 20.0568 15.444 20.0475 15.556C20.0381 15.6587 20.0288 15.7567 20.0195 15.85H13.9015V14.576H18.8715L18.0315 14.954C18.0315 14.562 17.9521 14.2213 17.7935 13.932C17.6348 13.6427 17.4155 13.4187 17.1355 13.26C16.8555 13.092 16.5288 13.008 16.1555 13.008C15.7821 13.008 15.4508 13.092 15.1615 13.26C14.8815 13.4187 14.6621 13.6473 14.5035 13.946C14.3448 14.2353 14.2655 14.5807 14.2655 14.982V15.318C14.2655 15.7287 14.3541 16.0927 14.5315 16.41C14.7181 16.718 14.9748 16.956 15.3015 17.124C15.6375 17.2827 16.0295 17.362 16.4775 17.362C16.8788 17.362 17.2288 17.3013 17.5275 17.18C17.8355 17.0587 18.1155 16.8767 18.3675 16.634L19.5295 17.894C19.1841 18.286 18.7501 18.5893 18.2275 18.804C17.7048 19.0093 17.1028 19.112 16.4215 19.112ZM21.7355 19V11.468H23.9055V14.408H27.1815V11.468H29.3655V19H27.1815V16.186H23.9055V19H21.7355ZM35.9643 19V17.53L35.8243 17.208V14.576C35.8243 14.1093 35.6796 13.7453 35.3903 13.484C35.1103 13.2227 34.6763 13.092 34.0883 13.092C33.6869 13.092 33.2903 13.1573 32.8983 13.288C32.5156 13.4093 32.1889 13.5773 31.9183 13.792L31.1343 12.266C31.5449 11.9767 32.0396 11.7527 32.6183 11.594C33.1969 11.4353 33.7849 11.356 34.3823 11.356C35.5303 11.356 36.4216 11.6267 37.0563 12.168C37.6909 12.7093 38.0083 13.554 38.0083 14.702V19H35.9643ZM33.6683 19.112C33.0803 19.112 32.5763 19.014 32.1562 18.818C31.7363 18.6127 31.4143 18.3373 31.1903 17.992C30.9663 17.6467 30.8543 17.2593 30.8543 16.83C30.8543 16.382 30.9616 15.99 31.1763 15.654C31.4003 15.318 31.7503 15.0567 32.2263 14.87C32.7023 14.674 33.3229 14.576 34.0883 14.576H36.0903V15.85H34.3263C33.8129 15.85 33.4583 15.934 33.2623 16.102C33.0756 16.27 32.9823 16.48 32.9823 16.732C32.9823 17.012 33.0896 17.236 33.3043 17.404C33.5283 17.5627 33.8316 17.642 34.2143 17.642C34.5783 17.642 34.9049 17.558 35.1943 17.39C35.4836 17.2127 35.6936 16.956 35.8243 16.62L36.1603 17.628C36.0016 18.1133 35.7123 18.482 35.2923 18.734C34.8723 18.986 34.3309 19.112 33.6683 19.112ZM39.4855 21.156L40.4095 17.796L40.7175 19.056C40.3161 19.056 39.9848 18.9393 39.7235 18.706C39.4715 18.4727 39.3455 18.1507 39.3455 17.74C39.3455 17.3293 39.4761 17.0027 39.7375 16.76C39.9988 16.5173 40.3208 16.396 40.7035 16.396C41.0955 16.396 41.4175 16.522 41.6695 16.774C41.9215 17.0167 42.0475 17.3387 42.0475 17.74C42.0475 17.8613 42.0381 17.9827 42.0195 18.104C42.0008 18.216 41.9635 18.356 41.9075 18.524C41.8608 18.6827 41.7815 18.888 41.6695 19.14L40.8715 21.156H39.4855ZM48.2624 19V9.2H52.5044C53.811 9.2 54.847 9.47533 55.6124 10.026C56.3777 10.5767 56.7604 11.4027 56.7604 12.504C56.7604 13.596 56.3777 14.4173 55.6124 14.968C54.847 15.5187 53.811 15.794 52.5044 15.794H49.5224L50.5444 14.786V19H48.2624ZM50.5444 15.024L49.5224 14.016H52.4904C53.1157 14.016 53.601 13.89 53.9464 13.638C54.2917 13.3767 54.4644 13.0033 54.4644 12.518C54.4644 12.042 54.2917 11.678 53.9464 11.426C53.601 11.174 53.1157 11.048 52.4904 11.048H49.5224L50.5444 9.97V15.024ZM46.9044 17.74V16.578H53.5684V17.74H46.9044Z" fill="#C6C6C6"/>
<path d="M982.707 180.707C983.098 180.317 983.098 179.683 982.707 179.293L976.343 172.929C975.953 172.538 975.319 172.538 974.929 172.929C974.538 173.319 974.538 173.953 974.929 174.343L980.586 180L974.929 185.657C974.538 186.047 974.538 186.681 974.929 187.071C975.319 187.462 975.953 187.462 976.343 187.071L982.707 180.707ZM79 181L982 181V179L79 179V181Z" fill="#C6C6C6"/>
<path d="M982.707 180.707C983.098 180.317 983.098 179.683 982.707 179.293L976.343 172.929C975.953 172.538 975.319 172.538 974.929 172.929C974.538 173.319 974.538 173.953 974.929 174.343L980.586 180L974.929 185.657C974.538 186.047 974.538 186.681 974.929 187.071C975.319 187.462 975.953 187.462 976.343 187.071L982.707 180.707ZM79 181L982 181V179L79 179V181Z" fill="#C6C6C6"/>
<path d="M982.707 180.707C983.098 180.317 983.098 179.683 982.707 179.293L976.343 172.929C975.953 172.538 975.319 172.538 974.929 172.929C974.538 173.319 974.538 173.953 974.929 174.343L980.586 180L974.929 185.657C974.538 186.047 974.538 186.681 974.929 187.071C975.319 187.462 975.953 187.462 976.343 187.071L982.707 180.707ZM79 181L982 181V179L79 179V181Z" fill="#C6C6C6"/>
<path d="M982.707 180.707C983.098 180.317 983.098 179.683 982.707 179.293L976.343 172.929C975.953 172.538 975.319 172.538 974.929 172.929C974.538 173.319 974.538 173.953 974.929 174.343L980.586 180L974.929 185.657C974.538 186.047 974.538 186.681 974.929 187.071C975.319 187.462 975.953 187.462 976.343 187.071L982.707 180.707ZM79 181L982 181V179L79 179V181Z" fill="#C6C6C6"/>
<path d="M899.873 206L896.821 201.282L898.655 200.176L902.449 206H899.873ZM893.503 206V196.2H895.757V206H893.503ZM895.099 202.052V200.162H898.515V202.052H895.099ZM898.865 201.352L896.779 201.1L899.957 196.2H902.351L898.865 201.352ZM906.762 206.112C905.959 206.112 905.245 205.944 904.62 205.608C904.004 205.272 903.514 204.815 903.15 204.236C902.795 203.648 902.618 202.981 902.618 202.234C902.618 201.478 902.795 200.811 903.15 200.232C903.514 199.644 904.004 199.187 904.62 198.86C905.245 198.524 905.959 198.356 906.762 198.356C907.555 198.356 908.264 198.524 908.89 198.86C909.515 199.187 910.005 199.639 910.36 200.218C910.714 200.797 910.892 201.469 910.892 202.234C910.892 202.981 910.714 203.648 910.36 204.236C910.005 204.815 909.515 205.272 908.89 205.608C908.264 205.944 907.555 206.112 906.762 206.112ZM906.762 204.32C907.126 204.32 907.452 204.236 907.742 204.068C908.031 203.9 908.26 203.662 908.428 203.354C908.596 203.037 908.68 202.663 908.68 202.234C908.68 201.795 908.596 201.422 908.428 201.114C908.26 200.806 908.031 200.568 907.742 200.4C907.452 200.232 907.126 200.148 906.762 200.148C906.398 200.148 906.071 200.232 905.782 200.4C905.492 200.568 905.259 200.806 905.082 201.114C904.914 201.422 904.83 201.795 904.83 202.234C904.83 202.663 904.914 203.037 905.082 203.354C905.259 203.662 905.492 203.9 905.782 204.068C906.071 204.236 906.398 204.32 906.762 204.32ZM911.332 205.986L911.444 204.194C911.5 204.203 911.556 204.213 911.612 204.222C911.668 204.222 911.72 204.222 911.766 204.222C912.028 204.222 912.233 204.147 912.382 203.998C912.532 203.849 912.644 203.648 912.718 203.396C912.793 203.135 912.844 202.841 912.872 202.514C912.91 202.187 912.938 201.847 912.956 201.492L913.068 198.468H919.508V206H917.324V199.728L917.814 200.26H914.51L914.972 199.7L914.874 201.59C914.846 202.262 914.79 202.878 914.706 203.438C914.632 203.998 914.506 204.483 914.328 204.894C914.151 205.295 913.913 205.608 913.614 205.832C913.316 206.047 912.933 206.154 912.466 206.154C912.298 206.154 912.121 206.14 911.934 206.112C911.748 206.084 911.547 206.042 911.332 205.986ZM921.609 206V198.468H923.779V202.948L927.447 198.468H929.449V206H927.279V201.52L923.625 206H921.609ZM936.294 203.116C935.986 203.284 935.645 203.419 935.272 203.522C934.899 203.625 934.488 203.676 934.04 203.676C933.051 203.676 932.29 203.452 931.758 203.004C931.226 202.547 930.96 201.823 930.96 200.834V198.468H933.144V200.694C933.144 201.161 933.265 201.497 933.508 201.702C933.751 201.898 934.091 201.996 934.53 201.996C934.847 201.996 935.151 201.959 935.44 201.884C935.739 201.809 936.023 201.702 936.294 201.562V203.116ZM936.14 206V198.468H938.324V206H936.14ZM944.103 206.112C943.244 206.112 942.488 205.944 941.835 205.608C941.191 205.272 940.692 204.815 940.337 204.236C939.982 203.648 939.805 202.981 939.805 202.234C939.805 201.478 939.978 200.811 940.323 200.232C940.678 199.644 941.158 199.187 941.765 198.86C942.372 198.524 943.058 198.356 943.823 198.356C944.56 198.356 945.223 198.515 945.811 198.832C946.408 199.14 946.88 199.588 947.225 200.176C947.57 200.755 947.743 201.45 947.743 202.262C947.743 202.346 947.738 202.444 947.729 202.556C947.72 202.659 947.71 202.757 947.701 202.85H941.583V201.576H946.553L945.713 201.954C945.713 201.562 945.634 201.221 945.475 200.932C945.316 200.643 945.097 200.419 944.817 200.26C944.537 200.092 944.21 200.008 943.837 200.008C943.464 200.008 943.132 200.092 942.843 200.26C942.563 200.419 942.344 200.647 942.185 200.946C942.026 201.235 941.947 201.581 941.947 201.982V202.318C941.947 202.729 942.036 203.093 942.213 203.41C942.4 203.718 942.656 203.956 942.983 204.124C943.319 204.283 943.711 204.362 944.159 204.362C944.56 204.362 944.91 204.301 945.209 204.18C945.517 204.059 945.797 203.877 946.049 203.634L947.211 204.894C946.866 205.286 946.432 205.589 945.909 205.804C945.386 206.009 944.784 206.112 944.103 206.112ZM953.001 206.112C952.189 206.112 951.466 205.949 950.831 205.622C950.197 205.286 949.697 204.824 949.333 204.236C948.979 203.648 948.801 202.981 948.801 202.234C948.801 201.478 948.979 200.811 949.333 200.232C949.697 199.644 950.197 199.187 950.831 198.86C951.466 198.524 952.189 198.356 953.001 198.356C953.795 198.356 954.485 198.524 955.073 198.86C955.661 199.187 956.095 199.658 956.375 200.274L954.681 201.184C954.485 200.829 954.238 200.568 953.939 200.4C953.65 200.232 953.333 200.148 952.987 200.148C952.614 200.148 952.278 200.232 951.979 200.4C951.681 200.568 951.443 200.806 951.265 201.114C951.097 201.422 951.013 201.795 951.013 202.234C951.013 202.673 951.097 203.046 951.265 203.354C951.443 203.662 951.681 203.9 951.979 204.068C952.278 204.236 952.614 204.32 952.987 204.32C953.333 204.32 953.65 204.241 953.939 204.082C954.238 203.914 954.485 203.648 954.681 203.284L956.375 204.208C956.095 204.815 955.661 205.286 955.073 205.622C954.485 205.949 953.795 206.112 953.001 206.112ZM959.299 206V199.756L959.789 200.26H956.751V198.468H964.017V200.26H960.979L961.469 199.756V206H959.299ZM965.181 206V198.468H969.031C969.974 198.468 970.711 198.641 971.243 198.986C971.775 199.322 972.041 199.798 972.041 200.414C972.041 201.03 971.789 201.515 971.285 201.87C970.79 202.215 970.132 202.388 969.311 202.388L969.535 201.884C970.45 201.884 971.131 202.052 971.579 202.388C972.036 202.724 972.265 203.214 972.265 203.858C972.265 204.521 972.013 205.043 971.509 205.426C971.005 205.809 970.235 206 969.199 206H965.181ZM967.183 204.516H969.017C969.418 204.516 969.717 204.451 969.913 204.32C970.118 204.18 970.221 203.97 970.221 203.69C970.221 203.401 970.128 203.191 969.941 203.06C969.754 202.92 969.46 202.85 969.059 202.85H967.183V204.516ZM967.183 201.562H968.835C969.218 201.562 969.502 201.492 969.689 201.352C969.885 201.212 969.983 201.011 969.983 200.75C969.983 200.479 969.885 200.279 969.689 200.148C969.502 200.017 969.218 199.952 968.835 199.952H967.183V201.562ZM977.418 206.112C976.615 206.112 975.901 205.944 975.276 205.608C974.66 205.272 974.17 204.815 973.806 204.236C973.451 203.648 973.274 202.981 973.274 202.234C973.274 201.478 973.451 200.811 973.806 200.232C974.17 199.644 974.66 199.187 975.276 198.86C975.901 198.524 976.615 198.356 977.418 198.356C978.211 198.356 978.921 198.524 979.546 198.86C980.171 199.187 980.661 199.639 981.016 200.218C981.371 200.797 981.548 201.469 981.548 202.234C981.548 202.981 981.371 203.648 981.016 204.236C980.661 204.815 980.171 205.272 979.546 205.608C978.921 205.944 978.211 206.112 977.418 206.112ZM977.418 204.32C977.782 204.32 978.109 204.236 978.398 204.068C978.687 203.9 978.916 203.662 979.084 203.354C979.252 203.037 979.336 202.663 979.336 202.234C979.336 201.795 979.252 201.422 979.084 201.114C978.916 200.806 978.687 200.568 978.398 200.4C978.109 200.232 977.782 200.148 977.418 200.148C977.054 200.148 976.727 200.232 976.438 200.4C976.149 200.568 975.915 200.806 975.738 201.114C975.57 201.422 975.486 201.795 975.486 202.234C975.486 202.663 975.57 203.037 975.738 203.354C975.915 203.662 976.149 203.9 976.438 204.068C976.727 204.236 977.054 204.32 977.418 204.32ZM914.26 223L912.258 219.43L914.022 218.38L916.85 223H914.26ZM910.97 220.144V218.394H913.588V220.144H910.97ZM914.246 219.486L912.188 219.262L914.358 215.468H916.668L914.246 219.486ZM906.812 223H904.236L907.05 218.38L908.814 219.43L906.812 223ZM911.614 223H909.458V215.468H911.614V223ZM910.102 220.144H907.498V218.394H910.102V220.144ZM906.826 219.486L904.404 215.468H906.714L908.87 219.262L906.826 219.486ZM917.986 223V215.468H920.156V219.948L923.824 215.468H925.826V223H923.656V218.52L920.002 223H917.986ZM927.925 223V215.468H931.775C932.718 215.468 933.455 215.641 933.987 215.986C934.519 216.322 934.785 216.798 934.785 217.414C934.785 218.03 934.533 218.515 934.029 218.87C933.534 219.215 932.876 219.388 932.055 219.388L932.279 218.884C933.194 218.884 933.875 219.052 934.323 219.388C934.78 219.724 935.009 220.214 935.009 220.858C935.009 221.521 934.757 222.043 934.253 222.426C933.749 222.809 932.979 223 931.943 223H927.925ZM929.927 221.516H931.761C932.162 221.516 932.461 221.451 932.657 221.32C932.862 221.18 932.965 220.97 932.965 220.69C932.965 220.401 932.872 220.191 932.685 220.06C932.498 219.92 932.204 219.85 931.803 219.85H929.927V221.516ZM929.927 218.562H931.579C931.962 218.562 932.246 218.492 932.433 218.352C932.629 218.212 932.727 218.011 932.727 217.75C932.727 217.479 932.629 217.279 932.433 217.148C932.246 217.017 931.962 216.952 931.579 216.952H929.927V218.562ZM940.162 223.112C939.359 223.112 938.645 222.944 938.02 222.608C937.404 222.272 936.914 221.815 936.55 221.236C936.195 220.648 936.018 219.981 936.018 219.234C936.018 218.478 936.195 217.811 936.55 217.232C936.914 216.644 937.404 216.187 938.02 215.86C938.645 215.524 939.359 215.356 940.162 215.356C940.955 215.356 941.665 215.524 942.29 215.86C942.915 216.187 943.405 216.639 943.76 217.218C944.115 217.797 944.292 218.469 944.292 219.234C944.292 219.981 944.115 220.648 943.76 221.236C943.405 221.815 942.915 222.272 942.29 222.608C941.665 222.944 940.955 223.112 940.162 223.112ZM940.162 221.32C940.526 221.32 940.853 221.236 941.142 221.068C941.431 220.9 941.66 220.662 941.828 220.354C941.996 220.037 942.08 219.663 942.08 219.234C942.08 218.795 941.996 218.422 941.828 218.114C941.66 217.806 941.431 217.568 941.142 217.4C940.853 217.232 940.526 217.148 940.162 217.148C939.798 217.148 939.471 217.232 939.182 217.4C938.893 217.568 938.659 217.806 938.482 218.114C938.314 218.422 938.23 218.795 938.23 219.234C938.23 219.663 938.314 220.037 938.482 220.354C938.659 220.662 938.893 220.9 939.182 221.068C939.471 221.236 939.798 221.32 940.162 221.32ZM947.131 223V216.756L947.621 217.26H944.583V215.468H951.849V217.26H948.811L949.301 216.756V223H947.131ZM953.013 223V215.468H955.183V218.408H958.459V215.468H960.643V223H958.459V220.186H955.183V223H953.013ZM970.49 223V215.468H972.66V223H970.49ZM966.696 217.876C967.685 217.885 968.427 218.109 968.922 218.548C969.426 218.977 969.678 219.589 969.678 220.382C969.678 221.213 969.393 221.861 968.824 222.328C968.254 222.785 967.447 223.014 966.402 223.014L962.734 223V215.468H964.904V217.876H966.696ZM966.206 221.46C966.626 221.469 966.948 221.381 967.172 221.194C967.396 221.007 967.508 220.727 967.508 220.354C967.508 219.981 967.396 219.715 967.172 219.556C966.948 219.388 966.626 219.299 966.206 219.29L964.904 219.276V221.46H966.206ZM973.757 223L977.131 218.576L977.089 219.78L973.855 215.468H976.305L978.349 218.282L977.425 218.31L979.539 215.468H981.863L978.615 219.738V218.562L981.975 223H979.497L977.355 220.004L978.265 220.13L976.137 223H973.757Z" fill="#C6C6C6"/>
<path d="M181.732 206V196.2H190.398V206H188.606V197.292L189.026 197.74H183.104L183.524 197.292V206H181.732ZM196.451 206.098C195.62 206.098 194.892 205.935 194.267 205.608C193.651 205.272 193.17 204.815 192.825 204.236C192.489 203.657 192.321 202.999 192.321 202.262C192.321 201.515 192.484 200.857 192.811 200.288C193.147 199.709 193.604 199.257 194.183 198.93C194.771 198.603 195.438 198.44 196.185 198.44C196.913 198.44 197.562 198.599 198.131 198.916C198.7 199.233 199.148 199.681 199.475 200.26C199.802 200.839 199.965 201.52 199.965 202.304C199.965 202.379 199.96 202.463 199.951 202.556C199.951 202.649 199.946 202.738 199.937 202.822H193.707V201.66H199.013L198.327 202.024C198.336 201.595 198.248 201.217 198.061 200.89C197.874 200.563 197.618 200.307 197.291 200.12C196.974 199.933 196.605 199.84 196.185 199.84C195.756 199.84 195.378 199.933 195.051 200.12C194.734 200.307 194.482 200.568 194.295 200.904C194.118 201.231 194.029 201.618 194.029 202.066V202.346C194.029 202.794 194.132 203.191 194.337 203.536C194.542 203.881 194.832 204.147 195.205 204.334C195.578 204.521 196.008 204.614 196.493 204.614C196.913 204.614 197.291 204.549 197.627 204.418C197.963 204.287 198.262 204.082 198.523 203.802L199.461 204.88C199.125 205.272 198.7 205.575 198.187 205.79C197.683 205.995 197.104 206.098 196.451 206.098ZM206.023 206.098C205.416 206.098 204.861 205.958 204.357 205.678C203.862 205.398 203.466 204.978 203.167 204.418C202.878 203.849 202.733 203.13 202.733 202.262C202.733 201.385 202.873 200.666 203.153 200.106C203.442 199.546 203.834 199.131 204.329 198.86C204.824 198.58 205.388 198.44 206.023 198.44C206.76 198.44 207.409 198.599 207.969 198.916C208.538 199.233 208.986 199.677 209.313 200.246C209.649 200.815 209.817 201.487 209.817 202.262C209.817 203.037 209.649 203.713 209.313 204.292C208.986 204.861 208.538 205.305 207.969 205.622C207.409 205.939 206.76 206.098 206.023 206.098ZM201.879 208.716V198.524H203.545V200.288L203.489 202.276L203.629 204.264V208.716H201.879ZM205.827 204.6C206.247 204.6 206.62 204.507 206.947 204.32C207.283 204.133 207.549 203.863 207.745 203.508C207.941 203.153 208.039 202.738 208.039 202.262C208.039 201.777 207.941 201.361 207.745 201.016C207.549 200.661 207.283 200.391 206.947 200.204C206.62 200.017 206.247 199.924 205.827 199.924C205.407 199.924 205.029 200.017 204.693 200.204C204.357 200.391 204.091 200.661 203.895 201.016C203.699 201.361 203.601 201.777 203.601 202.262C203.601 202.738 203.699 203.153 203.895 203.508C204.091 203.863 204.357 204.133 204.693 204.32C205.029 204.507 205.407 204.6 205.827 204.6ZM211.559 206V198.524H215.213C216.118 198.524 216.827 198.692 217.341 199.028C217.863 199.364 218.125 199.84 218.125 200.456C218.125 201.063 217.882 201.539 217.397 201.884C216.911 202.22 216.267 202.388 215.465 202.388L215.675 201.954C216.58 201.954 217.252 202.122 217.691 202.458C218.139 202.785 218.363 203.265 218.363 203.9C218.363 204.563 218.115 205.081 217.621 205.454C217.126 205.818 216.375 206 215.367 206H211.559ZM213.225 204.726H215.227C215.703 204.726 216.062 204.651 216.305 204.502C216.547 204.343 216.669 204.105 216.669 203.788C216.669 203.452 216.557 203.205 216.333 203.046C216.109 202.887 215.759 202.808 215.283 202.808H213.225V204.726ZM213.225 201.646H215.059C215.507 201.646 215.843 201.567 216.067 201.408C216.3 201.24 216.417 201.007 216.417 200.708C216.417 200.4 216.3 200.171 216.067 200.022C215.843 199.873 215.507 199.798 215.059 199.798H213.225V201.646ZM227.773 206V198.524H229.523V206H227.773ZM223.867 200.988C224.828 200.988 225.556 201.203 226.051 201.632C226.555 202.061 226.807 202.668 226.807 203.452C226.807 204.264 226.527 204.899 225.967 205.356C225.416 205.804 224.632 206.023 223.615 206.014L220.227 206V198.524H221.977V200.974L223.867 200.988ZM223.461 204.726C223.974 204.735 224.366 204.628 224.637 204.404C224.907 204.18 225.043 203.853 225.043 203.424C225.043 202.995 224.907 202.687 224.637 202.5C224.375 202.304 223.983 202.201 223.461 202.192L221.977 202.178V204.712L223.461 204.726ZM235.361 206.098C234.531 206.098 233.803 205.935 233.177 205.608C232.561 205.272 232.081 204.815 231.735 204.236C231.399 203.657 231.231 202.999 231.231 202.262C231.231 201.515 231.395 200.857 231.721 200.288C232.057 199.709 232.515 199.257 233.093 198.93C233.681 198.603 234.349 198.44 235.095 198.44C235.823 198.44 236.472 198.599 237.041 198.916C237.611 199.233 238.059 199.681 238.385 200.26C238.712 200.839 238.875 201.52 238.875 202.304C238.875 202.379 238.871 202.463 238.861 202.556C238.861 202.649 238.857 202.738 238.847 202.822H232.617V201.66H237.923L237.237 202.024C237.247 201.595 237.158 201.217 236.971 200.89C236.785 200.563 236.528 200.307 236.201 200.12C235.884 199.933 235.515 199.84 235.095 199.84C234.666 199.84 234.288 199.933 233.961 200.12C233.644 200.307 233.392 200.568 233.205 200.904C233.028 201.231 232.939 201.618 232.939 202.066V202.346C232.939 202.794 233.042 203.191 233.247 203.536C233.453 203.881 233.742 204.147 234.115 204.334C234.489 204.521 234.918 204.614 235.403 204.614C235.823 204.614 236.201 204.549 236.537 204.418C236.873 204.287 237.172 204.082 237.433 203.802L238.371 204.88C238.035 205.272 237.611 205.575 237.097 205.79C236.593 205.995 236.015 206.098 235.361 206.098ZM245.666 206V196.9L246.464 197.726H243.594V196.2H247.486V206H245.666ZM253.518 206.14C252.744 206.14 252.044 205.944 251.418 205.552C250.802 205.16 250.317 204.591 249.962 203.844C249.608 203.088 249.43 202.173 249.43 201.1C249.43 200.027 249.608 199.117 249.962 198.37C250.317 197.614 250.802 197.04 251.418 196.648C252.044 196.256 252.744 196.06 253.518 196.06C254.302 196.06 255.002 196.256 255.618 196.648C256.234 197.04 256.72 197.614 257.074 198.37C257.438 199.117 257.62 200.027 257.62 201.1C257.62 202.173 257.438 203.088 257.074 203.844C256.72 204.591 256.234 205.16 255.618 205.552C255.002 205.944 254.302 206.14 253.518 206.14ZM253.518 204.558C253.976 204.558 254.372 204.437 254.708 204.194C255.044 203.942 255.306 203.559 255.492 203.046C255.688 202.533 255.786 201.884 255.786 201.1C255.786 200.307 255.688 199.658 255.492 199.154C255.306 198.641 255.044 198.263 254.708 198.02C254.372 197.768 253.976 197.642 253.518 197.642C253.08 197.642 252.688 197.768 252.342 198.02C252.006 198.263 251.74 198.641 251.544 199.154C251.358 199.658 251.264 200.307 251.264 201.1C251.264 201.884 251.358 202.533 251.544 203.046C251.74 203.559 252.006 203.942 252.342 204.194C252.688 204.437 253.08 204.558 253.518 204.558ZM262.938 206.14C262.164 206.14 261.464 205.944 260.838 205.552C260.222 205.16 259.737 204.591 259.382 203.844C259.028 203.088 258.85 202.173 258.85 201.1C258.85 200.027 259.028 199.117 259.382 198.37C259.737 197.614 260.222 197.04 260.838 196.648C261.464 196.256 262.164 196.06 262.938 196.06C263.722 196.06 264.422 196.256 265.038 196.648C265.654 197.04 266.14 197.614 266.494 198.37C266.858 199.117 267.04 200.027 267.04 201.1C267.04 202.173 266.858 203.088 266.494 203.844C266.14 204.591 265.654 205.16 265.038 205.552C264.422 205.944 263.722 206.14 262.938 206.14ZM262.938 204.558C263.396 204.558 263.792 204.437 264.128 204.194C264.464 203.942 264.726 203.559 264.912 203.046C265.108 202.533 265.206 201.884 265.206 201.1C265.206 200.307 265.108 199.658 264.912 199.154C264.726 198.641 264.464 198.263 264.128 198.02C263.792 197.768 263.396 197.642 262.938 197.642C262.5 197.642 262.108 197.768 261.762 198.02C261.426 198.263 261.16 198.641 260.964 199.154C260.778 199.658 260.684 200.307 260.684 201.1C260.684 201.884 260.778 202.533 260.964 203.046C261.16 203.559 261.426 203.942 261.762 204.194C262.108 204.437 262.5 204.558 262.938 204.558ZM196.127 223L193.943 219.416L195.371 218.534L198.213 223H196.127ZM192.529 220.004V218.548H195.035V220.004H192.529ZM195.539 219.472L193.887 219.276L196.155 215.524H198.017L195.539 219.472ZM188.231 223H186.159L188.987 218.534L190.415 219.416L188.231 223ZM193.047 223H191.311V215.524H193.047V223ZM191.829 220.004H189.337V218.548H191.829V220.004ZM188.819 219.472L186.341 215.524H188.203L190.457 219.276L188.819 219.472ZM199.514 223V215.524H201.264V220.452L205.394 215.524H206.99V223H205.24V218.072L201.124 223H199.514ZM209.344 223V215.524H212.998C213.903 215.524 214.613 215.692 215.126 216.028C215.649 216.364 215.91 216.84 215.91 217.456C215.91 218.063 215.667 218.539 215.182 218.884C214.697 219.22 214.053 219.388 213.25 219.388L213.46 218.954C214.365 218.954 215.037 219.122 215.476 219.458C215.924 219.785 216.148 220.265 216.148 220.9C216.148 221.563 215.901 222.081 215.406 222.454C214.911 222.818 214.16 223 213.152 223H209.344ZM211.01 221.726H213.012C213.488 221.726 213.847 221.651 214.09 221.502C214.333 221.343 214.454 221.105 214.454 220.788C214.454 220.452 214.342 220.205 214.118 220.046C213.894 219.887 213.544 219.808 213.068 219.808H211.01V221.726ZM211.01 218.646H212.844C213.292 218.646 213.628 218.567 213.852 218.408C214.085 218.24 214.202 218.007 214.202 217.708C214.202 217.4 214.085 217.171 213.852 217.022C213.628 216.873 213.292 216.798 212.844 216.798H211.01V218.646ZM221.344 223.098C220.579 223.098 219.897 222.935 219.3 222.608C218.703 222.272 218.231 221.815 217.886 221.236C217.541 220.657 217.368 219.999 217.368 219.262C217.368 218.515 217.541 217.857 217.886 217.288C218.231 216.709 218.703 216.257 219.3 215.93C219.897 215.603 220.579 215.44 221.344 215.44C222.119 215.44 222.805 215.603 223.402 215.93C224.009 216.257 224.48 216.705 224.816 217.274C225.161 217.843 225.334 218.506 225.334 219.262C225.334 219.999 225.161 220.657 224.816 221.236C224.48 221.815 224.009 222.272 223.402 222.608C222.805 222.935 222.119 223.098 221.344 223.098ZM221.344 221.6C221.773 221.6 222.156 221.507 222.492 221.32C222.828 221.133 223.089 220.863 223.276 220.508C223.472 220.153 223.57 219.738 223.57 219.262C223.57 218.777 223.472 218.361 223.276 218.016C223.089 217.661 222.828 217.391 222.492 217.204C222.156 217.017 221.778 216.924 221.358 216.924C220.929 216.924 220.546 217.017 220.21 217.204C219.883 217.391 219.622 217.661 219.426 218.016C219.23 218.361 219.132 218.777 219.132 219.262C219.132 219.738 219.23 220.153 219.426 220.508C219.622 220.863 219.883 221.133 220.21 221.32C220.546 221.507 220.924 221.6 221.344 221.6ZM228.343 223V216.588L228.749 217.008H225.711V215.524H232.711V217.008H229.687L230.093 216.588V223H228.343ZM233.981 223V215.524H235.731V218.562H239.497V215.524H241.247V223H239.497V220.046H235.731V223H233.981ZM251.138 223V215.524H252.888V223H251.138ZM247.232 217.988C248.193 217.988 248.921 218.203 249.416 218.632C249.92 219.061 250.172 219.668 250.172 220.452C250.172 221.264 249.892 221.899 249.332 222.356C248.781 222.804 247.997 223.023 246.98 223.014L243.592 223V215.524H245.342V217.974L247.232 217.988ZM246.826 221.726C247.339 221.735 247.731 221.628 248.002 221.404C248.273 221.18 248.408 220.853 248.408 220.424C248.408 219.995 248.273 219.687 248.002 219.5C247.741 219.304 247.349 219.201 246.826 219.192L245.342 219.178V221.712L246.826 221.726ZM254.134 223L257.424 218.716L257.396 219.654L254.26 215.524H256.206L258.404 218.464H257.662L259.874 215.524H261.764L258.6 219.654L258.614 218.716L261.89 223H259.916L257.606 219.878L258.334 219.976L256.066 223H254.134Z" fill="#434343"/>
<path d="M418.212 206.14C417.465 206.14 416.77 206.019 416.126 205.776C415.491 205.524 414.936 205.174 414.46 204.726C413.993 204.269 413.629 203.732 413.368 203.116C413.107 202.5 412.976 201.828 412.976 201.1C412.976 200.372 413.107 199.7 413.368 199.084C413.629 198.468 413.998 197.936 414.474 197.488C414.95 197.031 415.505 196.681 416.14 196.438C416.775 196.186 417.47 196.06 418.226 196.06C419.029 196.06 419.761 196.2 420.424 196.48C421.087 196.751 421.647 197.157 422.104 197.698L420.928 198.804C420.573 198.421 420.177 198.137 419.738 197.95C419.299 197.754 418.823 197.656 418.31 197.656C417.797 197.656 417.325 197.74 416.896 197.908C416.476 198.076 416.107 198.314 415.79 198.622C415.482 198.93 415.239 199.294 415.062 199.714C414.894 200.134 414.81 200.596 414.81 201.1C414.81 201.604 414.894 202.066 415.062 202.486C415.239 202.906 415.482 203.27 415.79 203.578C416.107 203.886 416.476 204.124 416.896 204.292C417.325 204.46 417.797 204.544 418.31 204.544C418.823 204.544 419.299 204.451 419.738 204.264C420.177 204.068 420.573 203.774 420.928 203.382L422.104 204.502C421.647 205.034 421.087 205.44 420.424 205.72C419.761 206 419.024 206.14 418.212 206.14ZM422.219 205.986L422.303 204.516C422.368 204.525 422.429 204.535 422.485 204.544C422.541 204.553 422.592 204.558 422.639 204.558C422.928 204.558 423.152 204.469 423.311 204.292C423.469 204.115 423.586 203.877 423.661 203.578C423.745 203.27 423.801 202.929 423.829 202.556C423.866 202.173 423.894 201.791 423.913 201.408L424.039 198.524H430.087V206H428.337V199.532L428.743 200.008H425.187L425.565 199.518L425.467 201.492C425.439 202.155 425.383 202.771 425.299 203.34C425.224 203.9 425.103 204.39 424.935 204.81C424.776 205.23 424.552 205.557 424.263 205.79C423.983 206.023 423.623 206.14 423.185 206.14C423.045 206.14 422.891 206.126 422.723 206.098C422.564 206.07 422.396 206.033 422.219 205.986ZM435.93 206.098C435.099 206.098 434.371 205.935 433.746 205.608C433.13 205.272 432.649 204.815 432.304 204.236C431.968 203.657 431.8 202.999 431.8 202.262C431.8 201.515 431.963 200.857 432.29 200.288C432.626 199.709 433.083 199.257 433.662 198.93C434.25 198.603 434.917 198.44 435.664 198.44C436.392 198.44 437.04 198.599 437.61 198.916C438.179 199.233 438.627 199.681 438.954 200.26C439.28 200.839 439.444 201.52 439.444 202.304C439.444 202.379 439.439 202.463 439.43 202.556C439.43 202.649 439.425 202.738 439.416 202.822H433.186V201.66H438.492L437.806 202.024C437.815 201.595 437.726 201.217 437.54 200.89C437.353 200.563 437.096 200.307 436.77 200.12C436.452 199.933 436.084 199.84 435.664 199.84C435.234 199.84 434.856 199.933 434.53 200.12C434.212 200.307 433.96 200.568 433.774 200.904C433.596 201.231 433.508 201.618 433.508 202.066V202.346C433.508 202.794 433.61 203.191 433.816 203.536C434.021 203.881 434.31 204.147 434.684 204.334C435.057 204.521 435.486 204.614 435.972 204.614C436.392 204.614 436.77 204.549 437.106 204.418C437.442 204.287 437.74 204.082 438.002 203.802L438.94 204.88C438.604 205.272 438.179 205.575 437.666 205.79C437.162 205.995 436.583 206.098 435.93 206.098ZM446.386 205.188V200.008H443.516L443.474 201.212C443.455 201.641 443.427 202.057 443.39 202.458C443.353 202.85 443.292 203.214 443.208 203.55C443.124 203.877 443.003 204.147 442.844 204.362C442.685 204.577 442.475 204.717 442.214 204.782L440.478 204.516C440.758 204.516 440.982 204.427 441.15 204.25C441.327 204.063 441.463 203.811 441.556 203.494C441.659 203.167 441.733 202.799 441.78 202.388C441.827 201.968 441.859 201.534 441.878 201.086L441.976 198.524H448.136V205.188H446.386ZM440.212 207.666V204.516H449.242V207.666H447.604V206H441.836V207.666H440.212ZM451.477 208.814C451.113 208.814 450.749 208.753 450.385 208.632C450.021 208.511 449.718 208.343 449.475 208.128L450.175 206.84C450.352 206.999 450.553 207.125 450.777 207.218C451.001 207.311 451.23 207.358 451.463 207.358C451.78 207.358 452.037 207.279 452.233 207.12C452.429 206.961 452.611 206.695 452.779 206.322L453.213 205.342L453.353 205.132L456.181 198.524H457.861L454.361 206.602C454.128 207.162 453.866 207.605 453.577 207.932C453.297 208.259 452.98 208.487 452.625 208.618C452.28 208.749 451.897 208.814 451.477 208.814ZM453.017 206.266L449.643 198.524H451.463L454.207 204.978L453.017 206.266ZM459.076 206V198.524H460.826V201.422H463.052V203.004H460.826V206H459.076ZM465.908 206.098C465.162 206.098 464.494 205.935 463.906 205.608C463.328 205.272 462.87 204.815 462.534 204.236C462.198 203.657 462.03 202.999 462.03 202.262C462.03 201.515 462.198 200.853 462.534 200.274C462.87 199.695 463.328 199.247 463.906 198.93C464.494 198.603 465.162 198.44 465.908 198.44C466.664 198.44 467.332 198.603 467.91 198.93C468.498 199.247 468.96 199.695 469.296 200.274C469.632 200.853 469.8 201.515 469.8 202.262C469.8 202.999 469.632 203.662 469.296 204.25C468.96 204.829 468.498 205.281 467.91 205.608C467.332 205.935 466.664 206.098 465.908 206.098ZM465.908 204.614C466.328 204.614 466.697 204.516 467.014 204.32C467.341 204.124 467.598 203.853 467.784 203.508C467.971 203.163 468.064 202.747 468.064 202.262C468.064 201.777 467.971 201.361 467.784 201.016C467.598 200.661 467.341 200.391 467.014 200.204C466.697 200.017 466.333 199.924 465.922 199.924C465.512 199.924 465.143 200.017 464.816 200.204C464.49 200.391 464.233 200.661 464.046 201.016C463.86 201.361 463.766 201.777 463.766 202.262C463.766 202.747 463.86 203.163 464.046 203.508C464.233 203.853 464.49 204.124 464.816 204.32C465.143 204.516 465.507 204.614 465.908 204.614ZM476.544 204.516L476.166 204.936V198.524H477.916V204.936L477.496 204.516H481.192L480.786 204.936V198.524H482.536V206H471.518V198.524H473.268V204.936L472.862 204.516H476.544ZM481.976 207.54V205.566L482.382 206H480.73V204.516H483.614V207.54H481.976ZM484.889 206V198.524H486.639V203.452L490.769 198.524H492.365V206H490.615V201.072L486.499 206H484.889ZM498.205 206.098C497.374 206.098 496.646 205.935 496.021 205.608C495.405 205.272 494.924 204.815 494.579 204.236C494.243 203.657 494.075 202.999 494.075 202.262C494.075 201.515 494.238 200.857 494.565 200.288C494.901 199.709 495.358 199.257 495.937 198.93C496.525 198.603 497.192 198.44 497.939 198.44C498.667 198.44 499.316 198.599 499.885 198.916C500.454 199.233 500.902 199.681 501.229 200.26C501.556 200.839 501.719 201.52 501.719 202.304C501.719 202.379 501.714 202.463 501.705 202.556C501.705 202.649 501.7 202.738 501.691 202.822H495.461V201.66H500.767L500.081 202.024C500.09 201.595 500.002 201.217 499.815 200.89C499.628 200.563 499.372 200.307 499.045 200.12C498.728 199.933 498.359 199.84 497.939 199.84C497.51 199.84 497.132 199.933 496.805 200.12C496.488 200.307 496.236 200.568 496.049 200.904C495.872 201.231 495.783 201.618 495.783 202.066V202.346C495.783 202.794 495.886 203.191 496.091 203.536C496.296 203.881 496.586 204.147 496.959 204.334C497.332 204.521 497.762 204.614 498.247 204.614C498.667 204.614 499.045 204.549 499.381 204.418C499.717 204.287 500.016 204.082 500.277 203.802L501.215 204.88C500.879 205.272 500.454 205.575 499.941 205.79C499.437 205.995 498.858 206.098 498.205 206.098ZM506.802 203.774V202.514L511.632 196.2H513.578L508.818 202.514L507.908 202.234H515.678V203.774H506.802ZM512.178 206V203.774L512.234 202.234V200.26H513.942V206H512.178ZM520.532 206.14C519.757 206.14 519.057 205.944 518.432 205.552C517.816 205.16 517.331 204.591 516.976 203.844C516.621 203.088 516.444 202.173 516.444 201.1C516.444 200.027 516.621 199.117 516.976 198.37C517.331 197.614 517.816 197.04 518.432 196.648C519.057 196.256 519.757 196.06 520.532 196.06C521.316 196.06 522.016 196.256 522.632 196.648C523.248 197.04 523.733 197.614 524.088 198.37C524.452 199.117 524.634 200.027 524.634 201.1C524.634 202.173 524.452 203.088 524.088 203.844C523.733 204.591 523.248 205.16 522.632 205.552C522.016 205.944 521.316 206.14 520.532 206.14ZM520.532 204.558C520.989 204.558 521.386 204.437 521.722 204.194C522.058 203.942 522.319 203.559 522.506 203.046C522.702 202.533 522.8 201.884 522.8 201.1C522.8 200.307 522.702 199.658 522.506 199.154C522.319 198.641 522.058 198.263 521.722 198.02C521.386 197.768 520.989 197.642 520.532 197.642C520.093 197.642 519.701 197.768 519.356 198.02C519.02 198.263 518.754 198.641 518.558 199.154C518.371 199.658 518.278 200.307 518.278 201.1C518.278 201.884 518.371 202.533 518.558 203.046C518.754 203.559 519.02 203.942 519.356 204.194C519.701 204.437 520.093 204.558 520.532 204.558ZM529.952 206.14C529.177 206.14 528.477 205.944 527.852 205.552C527.236 205.16 526.751 204.591 526.396 203.844C526.041 203.088 525.864 202.173 525.864 201.1C525.864 200.027 526.041 199.117 526.396 198.37C526.751 197.614 527.236 197.04 527.852 196.648C528.477 196.256 529.177 196.06 529.952 196.06C530.736 196.06 531.436 196.256 532.052 196.648C532.668 197.04 533.153 197.614 533.508 198.37C533.872 199.117 534.054 200.027 534.054 201.1C534.054 202.173 533.872 203.088 533.508 203.844C533.153 204.591 532.668 205.16 532.052 205.552C531.436 205.944 530.736 206.14 529.952 206.14ZM529.952 204.558C530.409 204.558 530.806 204.437 531.142 204.194C531.478 203.942 531.739 203.559 531.926 203.046C532.122 202.533 532.22 201.884 532.22 201.1C532.22 200.307 532.122 199.658 531.926 199.154C531.739 198.641 531.478 198.263 531.142 198.02C530.806 197.768 530.409 197.642 529.952 197.642C529.513 197.642 529.121 197.768 528.776 198.02C528.44 198.263 528.174 198.641 527.978 199.154C527.791 199.658 527.698 200.307 527.698 201.1C527.698 201.884 527.791 202.533 527.978 203.046C528.174 203.559 528.44 203.942 528.776 204.194C529.121 204.437 529.513 204.558 529.952 204.558ZM445.627 223L443.443 219.416L444.871 218.534L447.713 223H445.627ZM442.029 220.004V218.548H444.535V220.004H442.029ZM445.039 219.472L443.387 219.276L445.655 215.524H447.517L445.039 219.472ZM437.731 223H435.659L438.487 218.534L439.915 219.416L437.731 223ZM442.547 223H440.811V215.524H442.547V223ZM441.329 220.004H438.837V218.548H441.329V220.004ZM438.319 219.472L435.841 215.524H437.703L439.957 219.276L438.319 219.472ZM449.014 223V215.524H450.764V220.452L454.894 215.524H456.49V223H454.74V218.072L450.624 223H449.014ZM458.844 223V215.524H462.498C463.403 215.524 464.113 215.692 464.626 216.028C465.149 216.364 465.41 216.84 465.41 217.456C465.41 218.063 465.167 218.539 464.682 218.884C464.197 219.22 463.553 219.388 462.75 219.388L462.96 218.954C463.865 218.954 464.537 219.122 464.976 219.458C465.424 219.785 465.648 220.265 465.648 220.9C465.648 221.563 465.401 222.081 464.906 222.454C464.411 222.818 463.66 223 462.652 223H458.844ZM460.51 221.726H462.512C462.988 221.726 463.347 221.651 463.59 221.502C463.833 221.343 463.954 221.105 463.954 220.788C463.954 220.452 463.842 220.205 463.618 220.046C463.394 219.887 463.044 219.808 462.568 219.808H460.51V221.726ZM460.51 218.646H462.344C462.792 218.646 463.128 218.567 463.352 218.408C463.585 218.24 463.702 218.007 463.702 217.708C463.702 217.4 463.585 217.171 463.352 217.022C463.128 216.873 462.792 216.798 462.344 216.798H460.51V218.646ZM470.844 223.098C470.079 223.098 469.397 222.935 468.8 222.608C468.203 222.272 467.731 221.815 467.386 221.236C467.041 220.657 466.868 219.999 466.868 219.262C466.868 218.515 467.041 217.857 467.386 217.288C467.731 216.709 468.203 216.257 468.8 215.93C469.397 215.603 470.079 215.44 470.844 215.44C471.619 215.44 472.305 215.603 472.902 215.93C473.509 216.257 473.98 216.705 474.316 217.274C474.661 217.843 474.834 218.506 474.834 219.262C474.834 219.999 474.661 220.657 474.316 221.236C473.98 221.815 473.509 222.272 472.902 222.608C472.305 222.935 471.619 223.098 470.844 223.098ZM470.844 221.6C471.273 221.6 471.656 221.507 471.992 221.32C472.328 221.133 472.589 220.863 472.776 220.508C472.972 220.153 473.07 219.738 473.07 219.262C473.07 218.777 472.972 218.361 472.776 218.016C472.589 217.661 472.328 217.391 471.992 217.204C471.656 217.017 471.278 216.924 470.858 216.924C470.429 216.924 470.046 217.017 469.71 217.204C469.383 217.391 469.122 217.661 468.926 218.016C468.73 218.361 468.632 218.777 468.632 219.262C468.632 219.738 468.73 220.153 468.926 220.508C469.122 220.863 469.383 221.133 469.71 221.32C470.046 221.507 470.424 221.6 470.844 221.6ZM477.843 223V216.588L478.249 217.008H475.211V215.524H482.211V217.008H479.187L479.593 216.588V223H477.843ZM483.481 223V215.524H485.231V218.562H488.997V215.524H490.747V223H488.997V220.046H485.231V223H483.481ZM500.638 223V215.524H502.388V223H500.638ZM496.732 217.988C497.693 217.988 498.421 218.203 498.916 218.632C499.42 219.061 499.672 219.668 499.672 220.452C499.672 221.264 499.392 221.899 498.832 222.356C498.281 222.804 497.497 223.023 496.48 223.014L493.092 223V215.524H494.842V217.974L496.732 217.988ZM496.326 221.726C496.839 221.735 497.231 221.628 497.502 221.404C497.773 221.18 497.908 220.853 497.908 220.424C497.908 219.995 497.773 219.687 497.502 219.5C497.241 219.304 496.849 219.201 496.326 219.192L494.842 219.178V221.712L496.326 221.726ZM503.634 223L506.924 218.716L506.896 219.654L503.76 215.524H505.706L507.904 218.464H507.162L509.374 215.524H511.264L508.1 219.654L508.114 218.716L511.39 223H509.416L507.106 219.878L507.834 219.976L505.566 223H503.634Z" fill="#434343"/>
<path d="M687.421 206.14C686.656 206.14 685.951 206.014 685.307 205.762C684.663 205.51 684.103 205.16 683.627 204.712C683.151 204.255 682.782 203.723 682.521 203.116C682.26 202.5 682.129 201.828 682.129 201.1C682.129 200.372 682.26 199.705 682.521 199.098C682.782 198.482 683.151 197.95 683.627 197.502C684.103 197.045 684.663 196.69 685.307 196.438C685.951 196.186 686.651 196.06 687.407 196.06C688.172 196.06 688.872 196.186 689.507 196.438C690.151 196.69 690.711 197.045 691.187 197.502C691.663 197.95 692.032 198.482 692.293 199.098C692.554 199.705 692.685 200.372 692.685 201.1C692.685 201.828 692.554 202.5 692.293 203.116C692.032 203.732 691.663 204.264 691.187 204.712C690.711 205.16 690.151 205.51 689.507 205.762C688.872 206.014 688.177 206.14 687.421 206.14ZM687.407 204.544C687.902 204.544 688.359 204.46 688.779 204.292C689.199 204.124 689.563 203.886 689.871 203.578C690.179 203.261 690.417 202.897 690.585 202.486C690.762 202.066 690.851 201.604 690.851 201.1C690.851 200.596 690.762 200.139 690.585 199.728C690.417 199.308 690.179 198.944 689.871 198.636C689.563 198.319 689.199 198.076 688.779 197.908C688.359 197.74 687.902 197.656 687.407 197.656C686.912 197.656 686.455 197.74 686.035 197.908C685.624 198.076 685.26 198.319 684.943 198.636C684.635 198.944 684.392 199.308 684.215 199.728C684.047 200.139 683.963 200.596 683.963 201.1C683.963 201.595 684.047 202.052 684.215 202.472C684.392 202.892 684.635 203.261 684.943 203.578C685.251 203.886 685.615 204.124 686.035 204.292C686.455 204.46 686.912 204.544 687.407 204.544ZM697.903 206.098C697.119 206.098 696.419 205.935 695.803 205.608C695.197 205.272 694.721 204.815 694.375 204.236C694.03 203.657 693.857 202.999 693.857 202.262C693.857 201.515 694.03 200.857 694.375 200.288C694.721 199.709 695.197 199.257 695.803 198.93C696.419 198.603 697.119 198.44 697.903 198.44C698.631 198.44 699.271 198.589 699.821 198.888C700.381 199.177 700.806 199.607 701.095 200.176L699.751 200.96C699.527 200.605 699.252 200.344 698.925 200.176C698.608 200.008 698.263 199.924 697.889 199.924C697.46 199.924 697.073 200.017 696.727 200.204C696.382 200.391 696.111 200.661 695.915 201.016C695.719 201.361 695.621 201.777 695.621 202.262C695.621 202.747 695.719 203.167 695.915 203.522C696.111 203.867 696.382 204.133 696.727 204.32C697.073 204.507 697.46 204.6 697.889 204.6C698.263 204.6 698.608 204.516 698.925 204.348C699.252 204.18 699.527 203.919 699.751 203.564L701.095 204.348C700.806 204.908 700.381 205.342 699.821 205.65C699.271 205.949 698.631 206.098 697.903 206.098ZM704.135 206V199.588L704.541 200.008H701.503V198.524H708.503V200.008H705.479L705.885 199.588V206H704.135ZM714.309 206V204.488L714.211 204.166V201.52C714.211 201.007 714.057 200.61 713.749 200.33C713.441 200.041 712.974 199.896 712.349 199.896C711.929 199.896 711.513 199.961 711.103 200.092C710.701 200.223 710.361 200.405 710.081 200.638L709.395 199.364C709.796 199.056 710.272 198.827 710.823 198.678C711.383 198.519 711.961 198.44 712.559 198.44C713.641 198.44 714.477 198.701 715.065 199.224C715.662 199.737 715.961 200.535 715.961 201.618V206H714.309ZM711.957 206.098C711.397 206.098 710.907 206.005 710.487 205.818C710.067 205.622 709.74 205.356 709.507 205.02C709.283 204.675 709.171 204.287 709.171 203.858C709.171 203.438 709.269 203.06 709.465 202.724C709.67 202.388 710.001 202.122 710.459 201.926C710.916 201.73 711.523 201.632 712.279 201.632H714.449V202.794H712.405C711.807 202.794 711.406 202.892 711.201 203.088C710.995 203.275 710.893 203.508 710.893 203.788C710.893 204.105 711.019 204.357 711.271 204.544C711.523 204.731 711.873 204.824 712.321 204.824C712.75 204.824 713.133 204.726 713.469 204.53C713.814 204.334 714.061 204.045 714.211 203.662L714.505 204.712C714.337 205.151 714.033 205.491 713.595 205.734C713.165 205.977 712.619 206.098 711.957 206.098ZM717.034 205.986L717.118 204.516C717.184 204.525 717.244 204.535 717.3 204.544C717.356 204.553 717.408 204.558 717.454 204.558C717.744 204.558 717.968 204.469 718.126 204.292C718.285 204.115 718.402 203.877 718.476 203.578C718.56 203.27 718.616 202.929 718.644 202.556C718.682 202.173 718.71 201.791 718.728 201.408L718.854 198.524H724.902V206H723.152V199.532L723.558 200.008H720.002L720.38 199.518L720.282 201.492C720.254 202.155 720.198 202.771 720.114 203.34C720.04 203.9 719.918 204.39 719.75 204.81C719.592 205.23 719.368 205.557 719.078 205.79C718.798 206.023 718.439 206.14 718 206.14C717.86 206.14 717.706 206.126 717.538 206.098C717.38 206.07 717.212 206.033 717.034 205.986ZM731.011 200.988C731.972 200.988 732.705 201.203 733.209 201.632C733.713 202.061 733.965 202.668 733.965 203.452C733.965 204.264 733.685 204.899 733.125 205.356C732.565 205.804 731.776 206.023 730.759 206.014L727.259 206V198.524H729.009V200.974L731.011 200.988ZM730.605 204.726C731.118 204.735 731.51 204.628 731.781 204.404C732.052 204.18 732.187 203.853 732.187 203.424C732.187 202.995 732.052 202.687 731.781 202.5C731.52 202.304 731.128 202.201 730.605 202.192L729.009 202.178V204.712L730.605 204.726ZM735.503 206V198.524H737.253V201.562H741.019V198.524H742.769V206H741.019V203.046H737.253V206H735.503ZM752.66 206V198.524H754.41V206H752.66ZM748.754 200.988C749.716 200.988 750.444 201.203 750.938 201.632C751.442 202.061 751.694 202.668 751.694 203.452C751.694 204.264 751.414 204.899 750.854 205.356C750.304 205.804 749.52 206.023 748.502 206.014L745.114 206V198.524H746.864V200.974L748.754 200.988ZM748.348 204.726C748.862 204.735 749.254 204.628 749.524 204.404C749.795 204.18 749.93 203.853 749.93 203.424C749.93 202.995 749.795 202.687 749.524 202.5C749.263 202.304 748.871 202.201 748.348 202.192L746.864 202.178V204.712L748.348 204.726ZM760.249 206.098C759.418 206.098 758.69 205.935 758.065 205.608C757.449 205.272 756.968 204.815 756.623 204.236C756.287 203.657 756.119 202.999 756.119 202.262C756.119 201.515 756.282 200.857 756.609 200.288C756.945 199.709 757.402 199.257 757.981 198.93C758.569 198.603 759.236 198.44 759.983 198.44C760.711 198.44 761.36 198.599 761.929 198.916C762.498 199.233 762.946 199.681 763.273 200.26C763.6 200.839 763.763 201.52 763.763 202.304C763.763 202.379 763.758 202.463 763.749 202.556C763.749 202.649 763.744 202.738 763.735 202.822H757.505V201.66H762.811L762.125 202.024C762.134 201.595 762.046 201.217 761.859 200.89C761.672 200.563 761.416 200.307 761.089 200.12C760.772 199.933 760.403 199.84 759.983 199.84C759.554 199.84 759.176 199.933 758.849 200.12C758.532 200.307 758.28 200.568 758.093 200.904C757.916 201.231 757.827 201.618 757.827 202.066V202.346C757.827 202.794 757.93 203.191 758.135 203.536C758.34 203.881 758.63 204.147 759.003 204.334C759.376 204.521 759.806 204.614 760.291 204.614C760.711 204.614 761.089 204.549 761.425 204.418C761.761 204.287 762.06 204.082 762.321 203.802L763.259 204.88C762.923 205.272 762.498 205.575 761.985 205.79C761.481 205.995 760.902 206.098 760.249 206.098Z" fill="#434343"/>
<rect x="124" y="30" width="200" height="150" fill="#68BBB6"/>
<path d="M194.092 112V109.9L199.492 104.8C199.918 104.413 200.232 104.067 200.432 103.76C200.632 103.453 200.765 103.173 200.832 102.92C200.912 102.667 200.952 102.433 200.952 102.22C200.952 101.66 200.758 101.233 200.372 100.94C199.998 100.633 199.445 100.48 198.712 100.48C198.125 100.48 197.578 100.593 197.072 100.82C196.578 101.047 196.158 101.4 195.812 101.88L193.452 100.36C193.985 99.56 194.732 98.9267 195.692 98.46C196.652 97.9933 197.758 97.76 199.012 97.76C200.052 97.76 200.958 97.9333 201.732 98.28C202.518 98.6133 203.125 99.0867 203.552 99.7C203.992 100.313 204.212 101.047 204.212 101.9C204.212 102.353 204.152 102.807 204.032 103.26C203.925 103.7 203.698 104.167 203.352 104.66C203.018 105.153 202.525 105.707 201.872 106.32L197.392 110.54L196.772 109.36H204.672V112H194.092ZM212.009 112.24C210.862 112.24 209.835 111.96 208.929 111.4C208.022 110.827 207.309 110 206.789 108.92C206.269 107.84 206.009 106.533 206.009 105C206.009 103.467 206.269 102.16 206.789 101.08C207.309 100 208.022 99.18 208.929 98.62C209.835 98.0467 210.862 97.76 212.009 97.76C213.169 97.76 214.195 98.0467 215.089 98.62C215.995 99.18 216.709 100 217.229 101.08C217.749 102.16 218.009 103.467 218.009 105C218.009 106.533 217.749 107.84 217.229 108.92C216.709 110 215.995 110.827 215.089 111.4C214.195 111.96 213.169 112.24 212.009 112.24ZM212.009 109.5C212.555 109.5 213.029 109.347 213.429 109.04C213.842 108.733 214.162 108.247 214.389 107.58C214.629 106.913 214.749 106.053 214.749 105C214.749 103.947 214.629 103.087 214.389 102.42C214.162 101.753 213.842 101.267 213.429 100.96C213.029 100.653 212.555 100.5 212.009 100.5C211.475 100.5 211.002 100.653 210.589 100.96C210.189 101.267 209.869 101.753 209.629 102.42C209.402 103.087 209.289 103.947 209.289 105C209.289 106.053 209.402 106.913 209.629 107.58C209.869 108.247 210.189 108.733 210.589 109.04C211.002 109.347 211.475 109.5 212.009 109.5ZM225.583 112.24C224.436 112.24 223.409 111.96 222.503 111.4C221.596 110.827 220.883 110 220.363 108.92C219.843 107.84 219.583 106.533 219.583 105C219.583 103.467 219.843 102.16 220.363 101.08C220.883 100 221.596 99.18 222.503 98.62C223.409 98.0467 224.436 97.76 225.583 97.76C226.743 97.76 227.769 98.0467 228.663 98.62C229.569 99.18 230.283 100 230.803 101.08C231.323 102.16 231.583 103.467 231.583 105C231.583 106.533 231.323 107.84 230.803 108.92C230.283 110 229.569 110.827 228.663 111.4C227.769 111.96 226.743 112.24 225.583 112.24ZM225.583 109.5C226.129 109.5 226.603 109.347 227.003 109.04C227.416 108.733 227.736 108.247 227.963 107.58C228.203 106.913 228.323 106.053 228.323 105C228.323 103.947 228.203 103.087 227.963 102.42C227.736 101.753 227.416 101.267 227.003 100.96C226.603 100.653 226.129 100.5 225.583 100.5C225.049 100.5 224.576 100.653 224.163 100.96C223.763 101.267 223.443 101.753 223.203 102.42C222.976 103.087 222.863 103.947 222.863 105C222.863 106.053 222.976 106.913 223.203 107.58C223.443 108.247 223.763 108.733 224.163 109.04C224.576 109.347 225.049 109.5 225.583 109.5ZM240.581 112V98H246.641C248.508 98 249.988 98.3933 251.081 99.18C252.174 99.9667 252.721 101.147 252.721 102.72C252.721 104.28 252.174 105.453 251.081 106.24C249.988 107.027 248.508 107.42 246.641 107.42H242.381L243.841 105.98V112H240.581ZM243.841 106.32L242.381 104.88H246.621C247.514 104.88 248.208 104.7 248.701 104.34C249.194 103.967 249.441 103.433 249.441 102.74C249.441 102.06 249.194 101.54 248.701 101.18C248.208 100.82 247.514 100.64 246.621 100.64H242.381L243.841 99.1V106.32ZM238.641 110.2V108.54H248.161V110.2H238.641Z" fill="white"/>
<rect x="374" y="80" width="200" height="100" fill="#55C086"/>
<path d="M449.194 137V124.2L450.594 125.6H446.394V123H452.434V137H449.194ZM459.626 137.24C458.653 137.24 457.686 137.113 456.726 136.86C455.779 136.593 454.966 136.22 454.286 135.74L455.566 133.26C456.099 133.647 456.713 133.953 457.406 134.18C458.113 134.407 458.826 134.52 459.546 134.52C460.359 134.52 460.999 134.36 461.466 134.04C461.933 133.72 462.166 133.273 462.166 132.7C462.166 132.34 462.073 132.02 461.886 131.74C461.699 131.46 461.366 131.247 460.886 131.1C460.419 130.953 459.759 130.88 458.906 130.88H455.326L456.046 123H464.586V125.6H457.206L458.886 124.12L458.386 129.74L456.706 128.26H459.666C461.053 128.26 462.166 128.453 463.006 128.84C463.859 129.213 464.479 129.727 464.866 130.38C465.253 131.033 465.446 131.773 465.446 132.6C465.446 133.427 465.239 134.193 464.826 134.9C464.413 135.593 463.773 136.16 462.906 136.6C462.053 137.027 460.959 137.24 459.626 137.24ZM472.76 137.24C471.614 137.24 470.587 136.96 469.68 136.4C468.774 135.827 468.06 135 467.54 133.92C467.02 132.84 466.76 131.533 466.76 130C466.76 128.467 467.02 127.16 467.54 126.08C468.06 125 468.774 124.18 469.68 123.62C470.587 123.047 471.614 122.76 472.76 122.76C473.92 122.76 474.947 123.047 475.84 123.62C476.747 124.18 477.46 125 477.98 126.08C478.5 127.16 478.76 128.467 478.76 130C478.76 131.533 478.5 132.84 477.98 133.92C477.46 135 476.747 135.827 475.84 136.4C474.947 136.96 473.92 137.24 472.76 137.24ZM472.76 134.5C473.307 134.5 473.78 134.347 474.18 134.04C474.594 133.733 474.914 133.247 475.14 132.58C475.38 131.913 475.5 131.053 475.5 130C475.5 128.947 475.38 128.087 475.14 127.42C474.914 126.753 474.594 126.267 474.18 125.96C473.78 125.653 473.307 125.5 472.76 125.5C472.227 125.5 471.754 125.653 471.34 125.96C470.94 126.267 470.62 126.753 470.38 127.42C470.154 128.087 470.04 128.947 470.04 130C470.04 131.053 470.154 131.913 470.38 132.58C470.62 133.247 470.94 133.733 471.34 134.04C471.754 134.347 472.227 134.5 472.76 134.5ZM487.759 137V123H493.819C495.685 123 497.165 123.393 498.259 124.18C499.352 124.967 499.899 126.147 499.899 127.72C499.899 129.28 499.352 130.453 498.259 131.24C497.165 132.027 495.685 132.42 493.819 132.42H489.559L491.019 130.98V137H487.759ZM491.019 131.32L489.559 129.88H493.799C494.692 129.88 495.385 129.7 495.879 129.34C496.372 128.967 496.619 128.433 496.619 127.74C496.619 127.06 496.372 126.54 495.879 126.18C495.385 125.82 494.692 125.64 493.799 125.64H489.559L491.019 124.1V131.32ZM485.819 135.2V133.54H495.339V135.2H485.819Z" fill="white"/>
<rect x="624" y="130" width="200" height="50" fill="#45D014"/>
<path d="M698.354 163V150.2L699.754 151.6H695.554V149H701.594V163H698.354ZM710.026 163.24C708.879 163.24 707.853 162.96 706.946 162.4C706.039 161.827 705.326 161 704.806 159.92C704.286 158.84 704.026 157.533 704.026 156C704.026 154.467 704.286 153.16 704.806 152.08C705.326 151 706.039 150.18 706.946 149.62C707.853 149.047 708.879 148.76 710.026 148.76C711.186 148.76 712.213 149.047 713.106 149.62C714.013 150.18 714.726 151 715.246 152.08C715.766 153.16 716.026 154.467 716.026 156C716.026 157.533 715.766 158.84 715.246 159.92C714.726 161 714.013 161.827 713.106 162.4C712.213 162.96 711.186 163.24 710.026 163.24ZM710.026 160.5C710.573 160.5 711.046 160.347 711.446 160.04C711.859 159.733 712.179 159.247 712.406 158.58C712.646 157.913 712.766 157.053 712.766 156C712.766 154.947 712.646 154.087 712.406 153.42C712.179 152.753 711.859 152.267 711.446 151.96C711.046 151.653 710.573 151.5 710.026 151.5C709.493 151.5 709.019 151.653 708.606 151.96C708.206 152.267 707.886 152.753 707.646 153.42C707.419 154.087 707.306 154.947 707.306 156C707.306 157.053 707.419 157.913 707.646 158.58C707.886 159.247 708.206 159.733 708.606 160.04C709.019 160.347 709.493 160.5 710.026 160.5ZM723.6 163.24C722.454 163.24 721.427 162.96 720.52 162.4C719.614 161.827 718.9 161 718.38 159.92C717.86 158.84 717.6 157.533 717.6 156C717.6 154.467 717.86 153.16 718.38 152.08C718.9 151 719.614 150.18 720.52 149.62C721.427 149.047 722.454 148.76 723.6 148.76C724.76 148.76 725.787 149.047 726.68 149.62C727.587 150.18 728.3 151 728.82 152.08C729.34 153.16 729.6 154.467 729.6 156C729.6 157.533 729.34 158.84 728.82 159.92C728.3 161 727.587 161.827 726.68 162.4C725.787 162.96 724.76 163.24 723.6 163.24ZM723.6 160.5C724.147 160.5 724.62 160.347 725.02 160.04C725.434 159.733 725.754 159.247 725.98 158.58C726.22 157.913 726.34 157.053 726.34 156C726.34 154.947 726.22 154.087 725.98 153.42C725.754 152.753 725.434 152.267 725.02 151.96C724.62 151.653 724.147 151.5 723.6 151.5C723.067 151.5 722.594 151.653 722.18 151.96C721.78 152.267 721.46 152.753 721.22 153.42C720.994 154.087 720.88 154.947 720.88 156C720.88 157.053 720.994 157.913 721.22 158.58C721.46 159.247 721.78 159.733 722.18 160.04C722.594 160.347 723.067 160.5 723.6 160.5ZM738.599 163V149H744.659C746.525 149 748.005 149.393 749.099 150.18C750.192 150.967 750.739 152.147 750.739 153.72C750.739 155.28 750.192 156.453 749.099 157.24C748.005 158.027 746.525 158.42 744.659 158.42H740.399L741.859 156.98V163H738.599ZM741.859 157.32L740.399 155.88H744.639C745.532 155.88 746.225 155.7 746.719 155.34C747.212 154.967 747.459 154.433 747.459 153.74C747.459 153.06 747.212 152.54 746.719 152.18C746.225 151.82 745.532 151.64 744.639 151.64H740.399L741.859 150.1V157.32ZM736.659 161.2V159.54H746.179V161.2H736.659Z" fill="white"/>
</svg>
